<svg preserveAspectRatio="none" width="100%" height="100%" overflow="visible" style="display: block;" viewBox="0 0 383.671 225" fill="none" xmlns="http://www.w3.org/2000/svg">
<path id="Subtract" d="M114.753 0C131.488 3.92263e-05 146.908 3.48854 161.013 10.4648C175.118 17.2006 187.191 26.8228 197.231 39.332C207.272 51.8413 215.041 66.9971 220.54 84.7988C226.278 102.36 229.146 121.966 229.146 143.616C229.146 165.267 226.278 184.993 220.54 202.795C218.071 210.682 215.142 218.083 211.756 225H17.2822C13.8373 218.083 10.8249 210.682 8.24805 202.795C2.74953 184.993 0 165.267 0 143.616C2.97101e-05 121.966 2.74952 102.36 8.24805 84.7988C13.9857 66.9971 21.8752 51.8414 31.916 39.332C42.1959 26.8229 54.2689 17.2006 68.1348 10.4648C82.2397 3.48855 97.7792 0 114.753 0ZM383.671 225H313.385V67.8389H273.938V7.93848H383.671V225ZM114.753 62.7871C107.82 62.7871 101.604 64.8323 96.1055 68.9219C90.607 72.7709 85.8258 78.3037 81.7617 85.5205C77.9366 92.4969 74.9475 101.037 72.7959 111.141C70.6443 121.004 69.5684 131.829 69.5684 143.616C69.5684 155.644 70.6444 166.59 72.7959 176.453C74.9475 186.316 77.9366 194.856 81.7617 202.073C85.8259 209.29 90.6069 214.944 96.1055 219.033C101.604 222.882 107.82 224.807 114.753 224.807C121.447 224.807 127.543 222.882 133.041 219.033C138.779 214.944 143.561 209.29 147.386 202.073C151.211 194.856 154.199 186.316 156.351 176.453C158.502 166.59 159.578 155.644 159.578 143.616C159.578 131.829 158.502 121.004 156.351 111.141C154.199 101.037 151.211 92.4968 147.386 85.5205C143.561 78.3036 138.779 72.7709 133.041 68.9219C127.543 64.8324 121.447 62.7872 114.753 62.7871Z" fill="var(--fill-0, white)"/>
</svg>
