<svg preserveAspectRatio="none" width="100%" height="100%" overflow="visible" style="display: block;" viewBox="0 0 103.827 45.1172" fill="none" xmlns="http://www.w3.org/2000/svg">
<path id="Subtract" d="M24.0146 0C27.7457 0 30.9344 0.542517 33.5801 1.62793C36.2936 2.71334 38.5321 4.17229 40.2959 6.00391C42.0596 7.83543 43.4502 9.97208 44.4678 12.4141C45.4853 14.8561 46.2659 17.4341 46.8086 20.1475C47.3513 22.861 47.6905 25.643 47.8262 28.4922C47.9618 31.3413 48.0293 34.0887 48.0293 36.7344C48.0293 39.38 47.9618 42.1274 47.8262 44.9766C47.8239 45.0234 47.8207 45.0704 47.8184 45.1172H38.6045C38.7818 41.9936 38.8711 39.1655 38.8711 36.6328C38.8711 34.869 38.8374 32.935 38.7695 30.832C38.7695 28.6614 38.5999 26.5247 38.2607 24.4219C37.9894 22.2512 37.548 20.1483 36.9375 18.1133C36.3948 16.0781 35.5468 14.3137 34.3936 12.8213C33.3082 11.2611 31.9175 10.0063 30.2217 9.05664C28.5257 8.10693 26.4568 7.63184 24.0146 7.63184C21.5725 7.63185 19.5036 8.10692 17.8076 9.05664C16.1118 10.0063 14.6874 11.2612 13.5342 12.8213C12.4488 14.3137 11.6008 16.0781 10.9902 18.1133C10.4476 20.1483 10.0062 22.2512 9.66699 24.4219C9.39567 26.5247 9.22605 28.6614 9.1582 30.832V36.6328C9.15821 39.1655 9.21872 41.9936 9.33691 45.1172H0.210938C0.208596 45.0704 0.205356 45.0234 0.203125 44.9766C0.0674542 42.1274 0 39.38 0 36.7344C9.73632e-08 34.0887 0.0674539 31.3413 0.203125 28.4922C0.338801 25.643 0.677998 22.861 1.2207 20.1475C1.76341 17.4341 2.544 14.8561 3.56152 12.4141C4.57905 9.97209 5.96976 7.83542 7.7334 6.00391C9.49718 4.17228 11.702 2.71334 14.3477 1.62793C17.0612 0.542523 20.2836 6.85128e-06 24.0146 0ZM100.095 8.85254H70.9922L67.126 29.6113L67.3291 29.8145C68.8894 28.0508 70.8909 26.7623 73.333 25.9482C75.8429 25.0664 78.3187 24.625 80.7607 24.625C83.9491 24.625 86.9682 25.1338 89.8174 26.1514C92.6666 27.1689 95.1431 28.7291 97.2461 30.832C99.3491 32.8672 101.01 35.4458 102.231 38.5664C103.015 40.5263 103.547 42.7099 103.827 45.1172H94.5771C94.3739 44.0735 94.0772 43.0769 93.6846 42.1279C92.9384 40.0928 91.8523 38.3621 90.4277 36.9375C89.0032 35.4452 87.2733 34.2925 85.2383 33.4785C83.271 32.6645 81.0662 32.2568 78.624 32.2568C75.7749 32.2569 73.2308 32.9015 70.9922 34.1904C68.8214 35.4115 66.8883 37.0401 65.1924 39.0752L57.7637 38.668L64.4795 1.2207H100.095V8.85254Z" fill="var(--fill-0, #E40C01)"/>
</svg>
