<svg preserveAspectRatio="none" width="100%" height="100%" overflow="visible" style="display: block;" viewBox="0 0 102.537 45.9111" fill="none" xmlns="http://www.w3.org/2000/svg">
<path id="Subtract" d="M24.0146 0C27.7457 0 30.9344 0.542517 33.5801 1.62793C36.2936 2.71334 38.5321 4.17229 40.2959 6.00391C42.0596 7.83543 43.4502 9.97208 44.4678 12.4141C45.4853 14.8561 46.2659 17.4341 46.8086 20.1475C47.3513 22.861 47.6905 25.643 47.8262 28.4922C47.9618 31.3413 48.0293 34.0887 48.0293 36.7344C48.0293 39.38 47.9618 42.1274 47.8262 44.9766C47.8113 45.2889 47.7932 45.6005 47.7734 45.9111H38.5605C38.5623 45.8711 38.5648 45.8311 38.5664 45.791C38.7699 42.3992 38.8711 39.3463 38.8711 36.6328C38.8711 34.869 38.8374 32.935 38.7695 30.832C38.7695 28.6614 38.5999 26.5247 38.2607 24.4219C37.9894 22.2512 37.548 20.1483 36.9375 18.1133C36.3948 16.0781 35.5468 14.3137 34.3936 12.8213C33.3082 11.2611 31.9175 10.0063 30.2217 9.05664C28.5257 8.10693 26.4568 7.63184 24.0146 7.63184C21.5725 7.63185 19.5036 8.10692 17.8076 9.05664C16.1118 10.0063 14.6874 11.2612 13.5342 12.8213C12.4488 14.3137 11.6008 16.0781 10.9902 18.1133C10.4476 20.1483 10.0062 22.2512 9.66699 24.4219C9.39567 26.5247 9.22605 28.6614 9.1582 30.832V36.6328C9.15821 39.3463 9.22565 42.3992 9.36133 45.791C9.36378 45.8311 9.36659 45.8711 9.36914 45.9111H0.255859C0.236098 45.6005 0.217996 45.2889 0.203125 44.9766C0.0674542 42.1274 0 39.38 0 36.7344C6.52072e-08 34.0887 0.0674539 31.3413 0.203125 28.4922C0.338801 25.643 0.677998 22.861 1.2207 20.1475C1.76341 17.4341 2.544 14.8561 3.56152 12.4141C4.57905 9.97209 5.96976 7.83542 7.7334 6.00391C9.49718 4.17228 11.702 2.71334 14.3477 1.62793C17.0612 0.542523 20.2836 6.84346e-06 24.0146 0ZM79.9473 0C83.0677 2.39933e-05 85.9848 0.475094 88.6982 1.4248C91.4796 2.3067 93.8877 3.62979 95.9229 5.39355C97.9578 7.08943 99.5519 9.22605 100.705 11.8037C101.926 14.3816 102.537 17.3669 102.537 20.7588C102.537 23.947 102.028 26.762 101.011 29.2041C100.061 31.6463 98.7717 33.8511 97.1436 35.8184C95.5155 37.7178 93.6498 39.4476 91.5469 41.0078C89.444 42.568 87.2737 44.0608 85.0352 45.4854C84.8012 45.6272 84.567 45.7693 84.333 45.9111H69.8555C71.508 44.7705 73.2093 43.6782 74.9609 42.6367C78.0137 40.7372 80.6935 39.0066 83 37.4463C85.3063 35.8183 87.2059 34.1905 88.6982 32.5625C90.2585 30.9344 91.412 29.17 92.1582 27.2705C92.9721 25.3711 93.3789 23.1661 93.3789 20.6562C93.3788 18.6891 93.0059 16.9254 92.2598 15.3652C91.5136 13.7372 90.4959 12.3466 89.207 11.1934C87.9859 10.0401 86.527 9.15839 84.8311 8.54785C83.1352 7.93738 81.3378 7.63186 79.4385 7.63184C76.9285 7.63184 74.7574 8.17438 72.9258 9.25977C71.162 10.2773 69.7031 11.6341 68.5498 13.3301C67.3966 15.026 66.5486 16.9601 66.0059 19.1309C65.5311 21.2336 65.3277 23.3704 65.3955 25.541H56.7461C56.5426 21.8778 56.9155 18.4858 57.8652 15.3652C58.815 12.2447 60.2739 9.56483 62.2412 7.32617C64.2763 5.01976 66.7867 3.22249 69.7715 1.93359C72.7563 0.644692 76.1484 0 79.9473 0Z" fill="var(--fill-0, #E40C01)"/>
</svg>
