<svg preserveAspectRatio="none" width="100%" height="100%" overflow="visible" style="display: block;" viewBox="0 0 104.674 51.1162" fill="none" xmlns="http://www.w3.org/2000/svg">
<path id="Subtract" d="M24.0146 0C27.7457 0 30.9344 0.542517 33.5801 1.62793C36.2936 2.71334 38.5321 4.17229 40.2959 6.00391C42.0596 7.83543 43.4502 9.97208 44.4678 12.4141C45.4853 14.8561 46.2659 17.4341 46.8086 20.1475C47.3513 22.861 47.6905 25.643 47.8262 28.4922C47.9618 31.3413 48.0293 34.0887 48.0293 36.7344C48.0293 39.38 47.9618 42.1274 47.8262 44.9766C47.727 47.0594 47.5169 49.1059 47.2002 51.1162H37.9736C38.2939 49.3923 38.4919 47.6173 38.5664 45.791C38.7699 42.3992 38.8711 39.3463 38.8711 36.6328C38.8711 34.869 38.8374 32.935 38.7695 30.832C38.7695 28.6614 38.5999 26.5247 38.2607 24.4219C37.9894 22.2512 37.548 20.1483 36.9375 18.1133C36.3948 16.0781 35.5468 14.3137 34.3936 12.8213C33.3082 11.2611 31.9175 10.0063 30.2217 9.05664C28.5257 8.10693 26.4568 7.63184 24.0146 7.63184C21.5725 7.63185 19.5036 8.10692 17.8076 9.05664C16.1118 10.0063 14.6874 11.2612 13.5342 12.8213C12.4488 14.3137 11.6008 16.0781 10.9902 18.1133C10.4476 20.1483 10.0062 22.2512 9.66699 24.4219C9.39567 26.5247 9.22605 28.6614 9.1582 30.832V36.6328C9.15821 39.3463 9.22565 42.3992 9.36133 45.791C9.47315 47.6173 9.68828 49.3923 10.0049 51.1162H0.829102C0.512403 49.1059 0.302308 47.0594 0.203125 44.9766C0.0674542 42.1274 0 39.38 0 36.7344C9.73633e-08 34.0887 0.0674539 31.3413 0.203125 28.4922C0.338801 25.643 0.677998 22.861 1.2207 20.1475C1.76341 17.4341 2.544 14.8561 3.56152 12.4141C4.57905 9.97209 5.96976 7.83542 7.7334 6.00391C9.49718 4.17228 11.702 2.71334 14.3477 1.62793C17.0612 0.542524 20.2836 7.02588e-06 24.0146 0ZM94.9053 47.6221H104.674V51.1162H55.1182V46.9102L87.9863 0H94.9053V47.6221ZM62.5469 47.6221H86.7646V12.3125H86.5615L62.5469 47.6221Z" fill="var(--fill-0, #E40C01)"/>
</svg>
