<svg preserveAspectRatio="none" width="100%" height="100%" overflow="visible" style="display: block;" viewBox="0 0 482.109 228" fill="none" xmlns="http://www.w3.org/2000/svg">
<path id="Subtract" d="M119.9 0C137.386 0 153.498 3.62827 168.235 10.8848C182.973 17.8911 195.588 27.9004 206.079 40.9121C216.57 53.924 224.689 69.6891 230.435 88.2061C236.43 106.473 239.427 126.866 239.427 149.387C239.427 171.907 236.43 192.426 230.435 210.943C228.563 216.895 226.436 222.58 224.061 228H138.767C138.847 227.945 138.929 227.89 139.01 227.834C145.005 223.58 150.001 217.699 153.998 210.192C157.995 202.686 161.117 193.802 163.365 183.543C165.613 173.284 166.737 161.898 166.737 149.387C166.737 137.126 165.613 125.865 163.365 115.605C161.117 105.096 157.995 96.2126 153.998 88.9561C150.001 81.4492 145.005 75.6941 139.01 71.6904C133.265 67.4366 126.895 65.3096 119.9 65.3096C112.657 65.3096 106.162 67.4367 100.417 71.6904C94.6719 75.694 89.6761 81.4494 85.4297 88.9561C81.4331 96.2126 78.3106 105.096 76.0625 115.605C73.8144 125.865 72.6895 137.126 72.6895 149.387C72.6895 161.898 73.8144 173.284 76.0625 183.543C78.3106 193.802 81.433 202.686 85.4297 210.192C89.6762 217.699 94.6718 223.58 100.417 227.834C100.498 227.89 100.579 227.945 100.66 228H15.1953C12.7648 222.58 10.5714 216.895 8.61816 210.943C2.87292 192.426 0 171.907 0 149.387C5.19275e-06 126.866 2.87296 106.473 8.61816 88.2061C14.6132 69.6891 22.8563 53.924 33.3477 40.9121C44.0887 27.9004 56.7035 17.8911 71.1914 10.8848C85.929 3.62829 102.165 5.35226e-05 119.9 0ZM372.699 0.750977C388.436 0.750977 402.924 3.25328 416.163 8.25781C429.652 13.2624 441.268 20.2682 451.01 29.2764C460.752 38.2846 468.37 49.0452 473.865 61.5566C479.361 73.8178 482.109 87.2046 482.109 101.718C482.109 117.232 478.737 131.621 471.992 144.883C465.498 157.895 455.006 171.282 440.519 185.044L394.705 228H318.547L327.736 218.45C346.221 199.183 360.709 182.917 371.2 169.655C381.692 156.143 389.436 144.758 394.432 135.499C399.677 126.241 402.925 118.734 404.174 112.979C405.423 107.223 406.047 102.343 406.047 98.3398C406.047 94.0862 405.297 89.9576 403.799 85.9541C402.55 81.9505 400.551 78.447 397.804 75.4443C395.056 72.1914 391.683 69.6891 387.687 67.9375C383.94 65.9358 379.444 64.9346 374.198 64.9346C364.207 64.9346 356.338 68.1874 350.593 74.6934C345.097 81.1993 342.35 89.3319 342.35 99.0908C342.35 101.843 342.724 105.847 343.474 111.102H263.29C263.29 94.5866 265.913 79.5728 271.158 66.0605C276.654 52.5482 284.273 40.9122 294.015 31.1533C303.757 21.3945 315.247 13.8876 328.486 8.63281C341.975 3.3781 356.713 0.750995 372.699 0.750977Z" fill="none" stroke="rgba(255,255,255,0.15)" stroke-width="1"/>
</svg>
