<svg preserveAspectRatio="none" width="100%" height="100%" overflow="visible" style="display: block;" viewBox="0 0 29.3333 21.3333" fill="none" xmlns="http://www.w3.org/2000/svg">
<path id="Icon" d="M10.6667 21.3333C10.2444 21.3333 9.86667 21.2111 9.53333 20.9667C9.2 20.7222 8.95556 20.4111 8.8 20.0333L5.73333 12H0V9.33333H7.6L10.6667 17.4667L16.8 1.3C16.9556 0.922222 17.2 0.611111 17.5333 0.366667C17.8667 0.122222 18.2444 0 18.6667 0C19.0889 0 19.4667 0.122222 19.8 0.366667C20.1333 0.611111 20.3778 0.922222 20.5333 1.3L23.6 9.33333H29.3333V12H21.7333L18.6667 3.86667L12.5333 20.0333C12.3778 20.4111 12.1333 20.7222 11.8 20.9667C11.4667 21.2111 11.0889 21.3333 10.6667 21.3333V21.3333" fill="var(--fill-0, white)"/>
</svg>
