<svg preserveAspectRatio="none" width="100%" height="100%" overflow="visible" style="display: block;" viewBox="0 0 50 50" fill="none" xmlns="http://www.w3.org/2000/svg">
<g id="Group">
<path id="Vector" d="M40.625 17.1875C40.625 17.6019 40.4604 17.9993 40.1674 18.2924C39.8743 18.5854 39.4769 18.75 39.0625 18.75C38.6481 18.75 38.2507 18.5854 37.9576 18.2924C37.6646 17.9993 37.5 17.6019 37.5 17.1875C37.5 16.7731 37.6646 16.3757 37.9576 16.0826C38.2507 15.7896 38.6481 15.625 39.0625 15.625C39.4769 15.625 39.8743 15.7896 40.1674 16.0826C40.4604 16.3757 40.625 16.7731 40.625 17.1875ZM37.5 20.3125C37.5 20.7269 37.3354 21.1243 37.0424 21.4174C36.7493 21.7104 36.3519 21.875 35.9375 21.875C35.5231 21.875 35.1257 21.7104 34.8326 21.4174C34.5396 21.1243 34.375 20.7269 34.375 20.3125C34.375 19.8981 34.5396 19.5007 34.8326 19.2076C35.1257 18.9146 35.5231 18.75 35.9375 18.75C36.3519 18.75 36.7493 18.9146 37.0424 19.2076C37.3354 19.5007 37.5 19.8981 37.5 20.3125ZM34.375 23.4375C34.375 23.8519 34.2104 24.2493 33.9174 24.5424C33.6243 24.8354 33.2269 25 32.8125 25C32.3981 25 32.0007 24.8354 31.7076 24.5424C31.4146 24.2493 31.25 23.8519 31.25 23.4375C31.25 23.0231 31.4146 22.6257 31.7076 22.3326C32.0007 22.0396 32.3981 21.875 32.8125 21.875C33.2269 21.875 33.6243 22.0396 33.9174 22.3326C34.2104 22.6257 34.375 23.0231 34.375 23.4375ZM31.25 26.5625C31.25 26.9769 31.0854 27.3743 30.7924 27.6674C30.4993 27.9604 30.1019 28.125 29.6875 28.125C29.2731 28.125 28.8757 27.9604 28.5826 27.6674C28.2896 27.3743 28.125 26.9769 28.125 26.5625C28.125 26.1481 28.2896 25.7507 28.5826 25.4576C28.8757 25.1646 29.2731 25 29.6875 25C30.1019 25 30.4993 25.1646 30.7924 25.4576C31.0854 25.7507 31.25 26.1481 31.25 26.5625ZM28.125 29.6875C28.125 30.1019 27.9604 30.4993 27.6674 30.7924C27.3743 31.0854 26.9769 31.25 26.5625 31.25C26.1481 31.25 25.7507 31.0854 25.4576 30.7924C25.1646 30.4993 25 30.1019 25 29.6875C25 29.2731 25.1646 28.8757 25.4576 28.5826C25.7507 28.2896 26.1481 28.125 26.5625 28.125C26.9769 28.125 27.3743 28.2896 27.6674 28.5826C27.9604 28.8757 28.125 29.2731 28.125 29.6875ZM25 32.8125C25 33.2269 24.8354 33.6243 24.5424 33.9174C24.2493 34.2104 23.8519 34.375 23.4375 34.375C23.0231 34.375 22.6257 34.2104 22.3326 33.9174C22.0396 33.6243 21.875 33.2269 21.875 32.8125C21.875 32.3981 22.0396 32.0007 22.3326 31.7076C22.6257 31.4146 23.0231 31.25 23.4375 31.25C23.8519 31.25 24.2493 31.4146 24.5424 31.7076C24.8354 32.0007 25 32.3981 25 32.8125ZM21.875 35.9375C21.875 36.3519 21.7104 36.7493 21.4174 37.0424C21.1243 37.3354 20.7269 37.5 20.3125 37.5C19.8981 37.5 19.5007 37.3354 19.2076 37.0424C18.9146 36.7493 18.75 36.3519 18.75 35.9375C18.75 35.5231 18.9146 35.1257 19.2076 34.8326C19.5007 34.5396 19.8981 34.375 20.3125 34.375C20.7269 34.375 21.1243 34.5396 21.4174 34.8326C21.7104 35.1257 21.875 35.5231 21.875 35.9375ZM18.75 39.0625C18.75 39.4769 18.5854 39.8743 18.2924 40.1674C17.9993 40.4604 17.6019 40.625 17.1875 40.625C16.7731 40.625 16.3757 40.4604 16.0826 40.1674C15.7896 39.8743 15.625 39.4769 15.625 39.0625C15.625 38.6481 15.7896 38.2507 16.0826 37.9576C16.3757 37.6646 16.7731 37.5 17.1875 37.5C17.6019 37.5 17.9993 37.6646 18.2924 37.9576C18.5854 38.2507 18.75 38.6481 18.75 39.0625ZM21.875 42.1875C21.875 42.6019 21.7104 42.9993 21.4174 43.2924C21.1243 43.5854 20.7269 43.75 20.3125 43.75C19.8981 43.75 19.5007 43.5854 19.2076 43.2924C18.9146 42.9993 18.75 42.6019 18.75 42.1875C18.75 41.7731 18.9146 41.3757 19.2076 41.0826C19.5007 40.7896 19.8981 40.625 20.3125 40.625C20.7269 40.625 21.1243 40.7896 21.4174 41.0826C21.7104 41.3757 21.875 41.7731 21.875 42.1875ZM23.4375 40.625C23.8519 40.625 24.2493 40.4604 24.5424 40.1674C24.8354 39.8743 25 39.4769 25 39.0625C25 38.6481 24.8354 38.2507 24.5424 37.9576C24.2493 37.6646 23.8519 37.5 23.4375 37.5C23.0231 37.5 22.6257 37.6646 22.3326 37.9576C22.0396 38.2507 21.875 38.6481 21.875 39.0625C21.875 39.4769 22.0396 39.8743 22.3326 40.1674C22.6257 40.4604 23.0231 40.625 23.4375 40.625ZM26.5625 37.5C26.9769 37.5 27.3743 37.3354 27.6674 37.0424C27.9604 36.7493 28.125 36.3519 28.125 35.9375C28.125 35.5231 27.9604 35.1257 27.6674 34.8326C27.3743 34.5396 26.9769 34.375 26.5625 34.375C26.1481 34.375 25.7507 34.5396 25.4576 34.8326C25.1646 35.1257 25 35.5231 25 35.9375C25 36.3519 25.1646 36.7493 25.4576 37.0424C25.7507 37.3354 26.1481 37.5 26.5625 37.5ZM29.6875 34.375C30.1019 34.375 30.4993 34.2104 30.7924 33.9174C31.0854 33.6243 31.25 33.2269 31.25 32.8125C31.25 32.3981 31.0854 32.0007 30.7924 31.7076C30.4993 31.4146 30.1019 31.25 29.6875 31.25C29.2731 31.25 28.8757 31.4146 28.5826 31.7076C28.2896 32.0007 28.125 32.3981 28.125 32.8125C28.125 33.2269 28.2896 33.6243 28.5826 33.9174C28.8757 34.2104 29.2731 34.375 29.6875 34.375ZM32.8125 31.25C33.2269 31.25 33.6243 31.0854 33.9174 30.7924C34.2104 30.4993 34.375 30.1019 34.375 29.6875C34.375 29.2731 34.2104 28.8757 33.9174 28.5826C33.6243 28.2896 33.2269 28.125 32.8125 28.125C32.3981 28.125 32.0007 28.2896 31.7076 28.5826C31.4146 28.8757 31.25 29.2731 31.25 29.6875C31.25 30.1019 31.4146 30.4993 31.7076 30.7924C32.0007 31.0854 32.3981 31.25 32.8125 31.25ZM35.9375 28.125C36.3519 28.125 36.7493 27.9604 37.0424 27.6674C37.3354 27.3743 37.5 26.9769 37.5 26.5625C37.5 26.1481 37.3354 25.7507 37.0424 25.4576C36.7493 25.1646 36.3519 25 35.9375 25C35.5231 25 35.1257 25.1646 34.8326 25.4576C34.5396 25.7507 34.375 26.1481 34.375 26.5625C34.375 26.9769 34.5396 27.3743 34.8326 27.6674C35.1257 27.9604 35.5231 28.125 35.9375 28.125ZM39.0625 25C39.4769 25 39.8743 24.8354 40.1674 24.5424C40.4604 24.2493 40.625 23.8519 40.625 23.4375C40.625 23.0231 40.4604 22.6257 40.1674 22.3326C39.8743 22.0396 39.4769 21.875 39.0625 21.875C38.6481 21.875 38.2507 22.0396 37.9576 22.3326C37.6646 22.6257 37.5 23.0231 37.5 23.4375C37.5 23.8519 37.6646 24.2493 37.9576 24.5424C38.2507 24.8354 38.6481 25 39.0625 25ZM42.1875 21.875C42.6019 21.875 42.9993 21.7104 43.2924 21.4174C43.5854 21.1243 43.75 20.7269 43.75 20.3125C43.75 19.8981 43.5854 19.5007 43.2924 19.2076C42.9993 18.9146 42.6019 18.75 42.1875 18.75C41.7731 18.75 41.3757 18.9146 41.0826 19.2076C40.7896 19.5007 40.625 19.8981 40.625 20.3125C40.625 20.7269 40.7896 21.1243 41.0826 21.4174C41.3757 21.7104 41.7731 21.875 42.1875 21.875ZM26.5625 43.75C26.9769 43.75 27.3743 43.5854 27.6674 43.2924C27.9604 42.9993 28.125 42.6019 28.125 42.1875C28.125 41.7731 27.9604 41.3757 27.6674 41.0826C27.3743 40.7896 26.9769 40.625 26.5625 40.625C26.1481 40.625 25.7507 40.7896 25.4576 41.0826C25.1646 41.3757 25 41.7731 25 42.1875C25 42.6019 25.1646 42.9993 25.4576 43.2924C25.7507 43.5854 26.1481 43.75 26.5625 43.75ZM31.25 39.0625C31.25 39.4769 31.0854 39.8743 30.7924 40.1674C30.4993 40.4604 30.1019 40.625 29.6875 40.625C29.2731 40.625 28.8757 40.4604 28.5826 40.1674C28.2896 39.8743 28.125 39.4769 28.125 39.0625C28.125 38.6481 28.2896 38.2507 28.5826 37.9576C28.8757 37.6646 29.2731 37.5 29.6875 37.5C30.1019 37.5 30.4993 37.6646 30.7924 37.9576C31.0854 38.2507 31.25 38.6481 31.25 39.0625ZM34.375 35.9375C34.375 36.3519 34.2104 36.7493 33.9174 37.0424C33.6243 37.3354 33.2269 37.5 32.8125 37.5C32.3981 37.5 32.0007 37.3354 31.7076 37.0424C31.4146 36.7493 31.25 36.3519 31.25 35.9375C31.25 35.5231 31.4146 35.1257 31.7076 34.8326C32.0007 34.5396 32.3981 34.375 32.8125 34.375C33.2269 34.375 33.6243 34.5396 33.9174 34.8326C34.2104 35.1257 34.375 35.5231 34.375 35.9375ZM37.5 32.8125C37.5 33.2269 37.3354 33.6243 37.0424 33.9174C36.7493 34.2104 36.3519 34.375 35.9375 34.375C35.5231 34.375 35.1257 34.2104 34.8326 33.9174C34.5396 33.6243 34.375 33.2269 34.375 32.8125C34.375 32.3981 34.5396 32.0007 34.8326 31.7076C35.1257 31.4146 35.5231 31.25 35.9375 31.25C36.3519 31.25 36.7493 31.4146 37.0424 31.7076C37.3354 32.0007 37.5 32.3981 37.5 32.8125ZM40.625 29.6875C40.625 30.1019 40.4604 30.4993 40.1674 30.7924C39.8743 31.0854 39.4769 31.25 39.0625 31.25C38.6481 31.25 38.2507 31.0854 37.9576 30.7924C37.6646 30.4993 37.5 30.1019 37.5 29.6875C37.5 29.2731 37.6646 28.8757 37.9576 28.5826C38.2507 28.2896 38.6481 28.125 39.0625 28.125C39.4769 28.125 39.8743 28.2896 40.1674 28.5826C40.4604 28.8757 40.625 29.2731 40.625 29.6875ZM43.75 26.5625C43.75 26.9769 43.5854 27.3743 43.2924 27.6674C42.9993 27.9604 42.6019 28.125 42.1875 28.125C41.7731 28.125 41.3757 27.9604 41.0826 27.6674C40.7896 27.3743 40.625 26.9769 40.625 26.5625C40.625 26.1481 40.7896 25.7507 41.0826 25.4576C41.3757 25.1646 41.7731 25 42.1875 25C42.6019 25 42.9993 25.1646 43.2924 25.4576C43.5854 25.7507 43.75 26.1481 43.75 26.5625ZM34.375 42.1875C34.375 42.6019 34.2104 42.9993 33.9174 43.2924C33.6243 43.5854 33.2269 43.75 32.8125 43.75C32.3981 43.75 32.0007 43.5854 31.7076 43.2924C31.4146 42.9993 31.25 42.6019 31.25 42.1875C31.25 41.7731 31.4146 41.3757 31.7076 41.0826C32.0007 40.7896 32.3981 40.625 32.8125 40.625C33.2269 40.625 33.6243 40.7896 33.9174 41.0826C34.2104 41.3757 34.375 41.7731 34.375 42.1875ZM35.9375 40.625C36.3519 40.625 36.7493 40.4604 37.0424 40.1674C37.3354 39.8743 37.5 39.4769 37.5 39.0625C37.5 38.6481 37.3354 38.2507 37.0424 37.9576C36.7493 37.6646 36.3519 37.5 35.9375 37.5C35.5231 37.5 35.1257 37.6646 34.8326 37.9576C34.5396 38.2507 34.375 38.6481 34.375 39.0625C34.375 39.4769 34.5396 39.8743 34.8326 40.1674C35.1257 40.4604 35.5231 40.625 35.9375 40.625ZM39.0625 37.5C39.4769 37.5 39.8743 37.3354 40.1674 37.0424C40.4604 36.7493 40.625 36.3519 40.625 35.9375C40.625 35.5231 40.4604 35.1257 40.1674 34.8326C39.8743 34.5396 39.4769 34.375 39.0625 34.375C38.6481 34.375 38.2507 34.5396 37.9576 34.8326C37.6646 35.1257 37.5 35.5231 37.5 35.9375C37.5 36.3519 37.6646 36.7493 37.9576 37.0424C38.2507 37.3354 38.6481 37.5 39.0625 37.5ZM42.1875 34.375C42.6019 34.375 42.9993 34.2104 43.2924 33.9174C43.5854 33.6243 43.75 33.2269 43.75 32.8125C43.75 32.3981 43.5854 32.0007 43.2924 31.7076C42.9993 31.4146 42.6019 31.25 42.1875 31.25C41.7731 31.25 41.3757 31.4146 41.0826 31.7076C40.7896 32.0007 40.625 32.3981 40.625 32.8125C40.625 33.2269 40.7896 33.6243 41.0826 33.9174C41.3757 34.2104 41.7731 34.375 42.1875 34.375Z" fill="var(--fill-0, white)"/>
<path id="Vector_2" d="M25 0C18.3696 0 12.0107 2.63392 7.32233 7.32233C2.63392 12.0107 0 18.3696 0 25C0 31.6304 2.63392 37.9893 7.32233 42.6777C12.0107 47.3661 18.3696 50 25 50C31.6304 50 37.9893 47.3661 42.6777 42.6777C47.3661 37.9893 50 31.6304 50 25C50 18.3696 47.3661 12.0107 42.6777 7.32233C37.9893 2.63392 31.6304 0 25 0ZM3.125 25C3.12461 20.3022 4.63658 15.7291 7.43717 11.9574C10.2378 8.18564 14.1782 5.4157 18.6753 4.05744C23.1725 2.69918 27.9874 2.82477 32.4077 4.41561C36.8279 6.00645 40.6186 8.97804 43.2187 12.8906C42.9359 12.6425 42.573 12.5047 42.1967 12.5027C41.8204 12.5007 41.456 12.6345 41.1705 12.8796C40.885 13.1247 40.6975 13.4646 40.6426 13.8368C40.5876 14.2091 40.6688 14.5887 40.8712 14.9058C41.0737 15.223 41.3838 15.4565 41.7446 15.5633C42.1054 15.6702 42.4926 15.6433 42.8351 15.4875C43.1777 15.3317 43.4525 15.0575 43.6091 14.7154C43.7656 14.3732 43.7935 13.986 43.6875 13.625C44.0979 14.2958 44.4719 14.9906 44.8094 15.7094C44.6082 15.7755 44.4226 15.8819 44.2638 16.022C44.105 16.1621 43.9763 16.333 43.8856 16.5243C43.7949 16.7157 43.744 16.9235 43.7361 17.1351C43.7281 17.3467 43.7633 17.5577 43.8394 17.7553C43.9155 17.9529 44.031 18.133 44.1789 18.2846C44.3267 18.4362 44.5038 18.5562 44.6995 18.6372C44.8951 18.7183 45.1052 18.7587 45.3169 18.7561C45.5287 18.7534 45.7377 18.7078 45.9312 18.6219C46.35 19.9927 46.6313 21.4135 46.775 22.8844C46.6423 22.5329 46.3873 22.241 46.0569 22.0621C45.7265 21.8833 45.3426 21.8295 44.9758 21.9107C44.6089 21.9918 44.2836 22.2024 44.0594 22.5039C43.8352 22.8054 43.7271 23.1776 43.755 23.5523C43.7829 23.927 43.9449 24.2791 44.2113 24.5441C44.4777 24.8091 44.8306 24.9692 45.2055 24.9951C45.5803 25.021 45.9519 24.911 46.2522 24.6852C46.5525 24.4594 46.7614 24.1329 46.8406 23.7656C46.9356 25.4294 46.8402 27.0985 46.5562 28.7406C46.3761 28.5049 46.1325 28.3253 45.854 28.2229C45.5755 28.1205 45.2736 28.0995 44.9836 28.1624C44.6937 28.2253 44.4276 28.3695 44.2165 28.578C44.0055 28.7866 43.8582 29.051 43.7918 29.3402C43.7255 29.6294 43.7429 29.9315 43.842 30.2112C43.9411 30.4909 44.1177 30.7366 44.3513 30.9195C44.5849 31.1025 44.8658 31.2152 45.1611 31.2443C45.4564 31.2735 45.7538 31.2181 46.0187 31.0844C45.6791 32.2552 45.2422 33.3957 44.7125 34.4938C44.3807 34.6311 44.1064 34.8785 43.9357 35.1944C43.7649 35.5103 43.7082 35.8753 43.775 36.2281C43.4851 36.7128 43.1765 37.1861 42.85 37.6469C42.6118 37.5354 42.3494 37.4858 42.087 37.5027C41.8245 37.5196 41.5706 37.6025 41.3488 37.7437C41.1269 37.8848 40.9442 38.0797 40.8177 38.3103C40.6912 38.5408 40.6249 38.7995 40.625 39.0625C40.625 39.4094 40.7375 39.7312 40.9312 39.9906C40.6283 40.3125 40.3157 40.6252 39.9938 40.9281C39.7142 40.7216 39.3739 40.6142 39.0265 40.6229C38.6791 40.6315 38.3444 40.7557 38.0756 40.9759C37.8067 41.196 37.6188 41.4995 37.5418 41.8384C37.4647 42.1772 37.5028 42.5321 37.65 42.8469C37.1883 43.1756 36.714 43.4862 36.2281 43.7781C35.8753 43.7113 35.5103 43.7681 35.1944 43.9388C34.8785 44.1095 34.6311 44.3839 34.4938 44.7156C33.3946 45.2444 32.2531 45.6803 31.0813 46.0187C31.2153 45.7538 31.2712 45.4562 31.2422 45.1607C31.2133 44.8652 31.1007 44.584 30.9177 44.3502C30.7347 44.1164 30.4889 43.9395 30.2091 43.8403C29.9292 43.7411 29.6269 43.7238 29.3375 43.7902C29.0481 43.8567 28.7836 44.0042 28.575 44.2156C28.3665 44.4269 28.2225 44.6933 28.1598 44.9835C28.0972 45.2738 28.1186 45.5758 28.2214 45.8544C28.3243 46.1329 28.5044 46.3764 28.7406 46.5562C27.0985 46.8402 25.4294 46.9356 23.7656 46.8406C24.1329 46.7614 24.4594 46.5525 24.6852 46.2522C24.911 45.9519 25.021 45.5803 24.9951 45.2055C24.9692 44.8306 24.8091 44.4777 24.5441 44.2113C24.2791 43.9449 23.927 43.7829 23.5523 43.755C23.1776 43.7271 22.8054 43.8352 22.5039 44.0594C22.2024 44.2836 21.9918 44.6089 21.9107 44.9758C21.8295 45.3426 21.8833 45.7265 22.0621 46.0569C22.241 46.3873 22.5329 46.6423 22.8844 46.775C21.4391 46.6359 20.0112 46.3533 18.6219 45.9312C18.7261 45.6937 18.7692 45.4338 18.7474 45.1753C18.7256 44.9168 18.6395 44.6679 18.497 44.4512C18.3544 44.2344 18.16 44.0567 17.9313 43.9343C17.7026 43.8118 17.4469 43.7485 17.1875 43.75C16.8614 43.7502 16.5435 43.8525 16.2784 44.0425C16.0134 44.2325 15.8144 44.5006 15.7094 44.8094C14.9937 44.4724 14.2969 44.0968 13.6219 43.6844C13.8547 43.7528 14.1002 43.7661 14.3391 43.7231C14.5779 43.6802 14.8034 43.5822 14.9978 43.4369C15.1922 43.2917 15.3501 43.1031 15.4589 42.8863C15.5678 42.6694 15.6247 42.4302 15.625 42.1875C15.6254 41.9346 15.5643 41.6854 15.4471 41.4613C15.33 41.2371 15.1601 41.0448 14.9522 40.9008C14.7443 40.7568 14.5046 40.6654 14.2535 40.6345C14.0025 40.6036 13.7478 40.634 13.5111 40.7233C13.2745 40.8125 13.063 40.9579 12.895 41.1469C12.7269 41.3358 12.6072 41.5628 12.5462 41.8082C12.4851 42.0537 12.4846 42.3102 12.5446 42.5559C12.6046 42.8016 12.7233 43.0291 12.8906 43.2187C9.88716 41.2223 7.42389 38.5143 5.72008 35.3356C4.01628 32.157 3.1248 28.6065 3.125 25Z" fill="var(--fill-0, white)"/>
</g>
</svg>
