<svg preserveAspectRatio="none" width="100%" height="100%" overflow="visible" style="display: block;" viewBox="0 0 468 104" fill="none" xmlns="http://www.w3.org/2000/svg">
<g id="Vector">
<path d="M9.08 5.72H0.52V0.439998H23.92V5.72H15.36V29H9.08V5.72Z" fill="white"/>
<path d="M25.8131 0.439998H31.4931V11.2H31.6131C32.3331 10 33.2531 9.13333 34.3731 8.6C35.4931 8.04 36.5865 7.76 37.6531 7.76C39.1731 7.76 40.4131 7.97333 41.3731 8.4C42.3598 8.8 43.1331 9.37333 43.6931 10.12C44.2531 10.84 44.6398 11.7333 44.8531 12.8C45.0931 13.84 45.2131 15 45.2131 16.28V29H39.5331V17.32C39.5331 15.6133 39.2665 14.3467 38.7331 13.52C38.1998 12.6667 37.2531 12.24 35.8931 12.24C34.3465 12.24 33.2265 12.7067 32.5331 13.64C31.8398 14.5467 31.4931 16.0533 31.4931 18.16V29H25.8131V0.439998Z" fill="white"/>
<path d="M62.6441 16.44C62.3774 15 61.8974 13.9067 61.2041 13.16C60.5374 12.4133 59.5107 12.04 58.1241 12.04C57.2174 12.04 56.4574 12.2 55.8441 12.52C55.2574 12.8133 54.7774 13.1867 54.4041 13.64C54.0574 14.0933 53.8041 14.5733 53.6441 15.08C53.5107 15.5867 53.4307 16.04 53.4041 16.44H62.6441ZM53.4041 20.04C53.4841 21.88 53.9507 23.2133 54.8041 24.04C55.6574 24.8667 56.8841 25.28 58.4841 25.28C59.6307 25.28 60.6174 25 61.4441 24.44C62.2707 23.8533 62.7774 23.24 62.9641 22.6H67.9641C67.1641 25.08 65.9374 26.8533 64.2841 27.92C62.6307 28.9867 60.6307 29.52 58.2841 29.52C56.6574 29.52 55.1907 29.2667 53.8841 28.76C52.5774 28.2267 51.4707 27.48 50.5641 26.52C49.6574 25.56 48.9507 24.4133 48.4441 23.08C47.9641 21.7467 47.7241 20.28 47.7241 18.68C47.7241 17.1333 47.9774 15.6933 48.4841 14.36C48.9907 13.0267 49.7107 11.88 50.6441 10.92C51.5774 9.93333 52.6841 9.16 53.9641 8.6C55.2707 8.04 56.7107 7.76 58.2841 7.76C60.0441 7.76 61.5774 8.10667 62.8841 8.8C64.1907 9.46667 65.2574 10.3733 66.0841 11.52C66.9374 12.6667 67.5507 13.9733 67.9241 15.44C68.2974 16.9067 68.4307 18.44 68.3241 20.04H53.4041Z" fill="white"/>
<path d="M81.8256 0.439998H88.1056V11.4H99.6656V0.439998H105.946V29H99.6656V16.68H88.1056V29H81.8256V0.439998Z" fill="white"/>
<path d="M129.474 29H124.074V26.12H123.954C123.234 27.32 122.301 28.1867 121.154 28.72C120.007 29.2533 118.834 29.52 117.634 29.52C116.114 29.52 114.861 29.32 113.874 28.92C112.914 28.52 112.154 27.96 111.594 27.24C111.034 26.4933 110.634 25.6 110.394 24.56C110.181 23.4933 110.074 22.32 110.074 21.04V8.32H115.754V20C115.754 21.7067 116.021 22.9867 116.554 23.84C117.087 24.6667 118.034 25.08 119.394 25.08C120.941 25.08 122.061 24.6267 122.754 23.72C123.447 22.7867 123.794 21.2667 123.794 19.16V8.32H129.474V29Z" fill="white"/>
<path d="M133.145 8.32H138.505V11.12H138.585C139.332 10.0533 140.225 9.22667 141.265 8.64C142.332 8.05333 143.545 7.76 144.905 7.76C146.212 7.76 147.398 8.01333 148.465 8.52C149.558 9.02667 150.385 9.92 150.945 11.2C151.558 10.2933 152.385 9.49333 153.425 8.8C154.492 8.10667 155.745 7.76 157.185 7.76C158.278 7.76 159.292 7.89333 160.225 8.16C161.158 8.42667 161.958 8.85333 162.625 9.44C163.292 10.0267 163.812 10.8 164.185 11.76C164.558 12.6933 164.745 13.8267 164.745 15.16V29H159.065V17.28C159.065 16.5867 159.038 15.9333 158.985 15.32C158.932 14.7067 158.785 14.1733 158.545 13.72C158.305 13.2667 157.945 12.9067 157.465 12.64C157.012 12.3733 156.385 12.24 155.585 12.24C154.785 12.24 154.132 12.4 153.625 12.72C153.145 13.0133 152.758 13.4133 152.465 13.92C152.198 14.4 152.012 14.96 151.905 15.6C151.825 16.2133 151.785 16.84 151.785 17.48V29H146.105V17.4C146.105 16.7867 146.092 16.1867 146.065 15.6C146.038 14.9867 145.918 14.4267 145.705 13.92C145.518 13.4133 145.185 13.0133 144.705 12.72C144.252 12.4 143.572 12.24 142.665 12.24C142.398 12.24 142.038 12.3067 141.585 12.44C141.158 12.5467 140.732 12.7733 140.305 13.12C139.905 13.44 139.558 13.92 139.265 14.56C138.972 15.1733 138.825 15.9867 138.825 17V29H133.145V8.32Z" fill="white"/>
<path d="M168.195 14.68C168.275 13.3467 168.608 12.24 169.195 11.36C169.782 10.48 170.528 9.77333 171.435 9.24C172.342 8.70667 173.355 8.33333 174.475 8.12C175.622 7.88 176.768 7.76 177.915 7.76C178.955 7.76 180.008 7.84 181.075 8C182.142 8.13333 183.115 8.41333 183.995 8.84C184.875 9.26667 185.595 9.86667 186.155 10.64C186.715 11.3867 186.995 12.3867 186.995 13.64V24.4C186.995 25.3333 187.048 26.2267 187.155 27.08C187.262 27.9333 187.448 28.5733 187.715 29H181.955C181.848 28.68 181.755 28.36 181.675 28.04C181.622 27.6933 181.582 27.3467 181.555 27C180.648 27.9333 179.582 28.5867 178.355 28.96C177.128 29.3333 175.875 29.52 174.595 29.52C173.608 29.52 172.688 29.4 171.835 29.16C170.982 28.92 170.235 28.5467 169.595 28.04C168.955 27.5333 168.448 26.8933 168.075 26.12C167.728 25.3467 167.555 24.4267 167.555 23.36C167.555 22.1867 167.755 21.2267 168.155 20.48C168.582 19.7067 169.115 19.0933 169.755 18.64C170.422 18.1867 171.168 17.8533 171.995 17.64C172.848 17.4 173.702 17.2133 174.555 17.08C175.408 16.9467 176.248 16.84 177.075 16.76C177.902 16.68 178.635 16.56 179.275 16.4C179.915 16.24 180.422 16.0133 180.795 15.72C181.168 15.4 181.342 14.9467 181.315 14.36C181.315 13.7467 181.208 13.2667 180.995 12.92C180.808 12.5467 180.542 12.2667 180.195 12.08C179.875 11.8667 179.488 11.7333 179.035 11.68C178.608 11.6 178.142 11.56 177.635 11.56C176.515 11.56 175.635 11.8 174.995 12.28C174.355 12.76 173.982 13.56 173.875 14.68H168.195ZM181.315 18.88C181.075 19.0933 180.768 19.2667 180.395 19.4C180.048 19.5067 179.662 19.6 179.235 19.68C178.835 19.76 178.408 19.8267 177.955 19.88C177.502 19.9333 177.048 20 176.595 20.08C176.168 20.16 175.742 20.2667 175.315 20.4C174.915 20.5333 174.555 20.72 174.235 20.96C173.942 21.1733 173.702 21.4533 173.515 21.8C173.328 22.1467 173.235 22.5867 173.235 23.12C173.235 23.6267 173.328 24.0533 173.515 24.4C173.702 24.7467 173.955 25.0267 174.275 25.24C174.595 25.4267 174.968 25.56 175.395 25.64C175.822 25.72 176.262 25.76 176.715 25.76C177.835 25.76 178.702 25.5733 179.315 25.2C179.928 24.8267 180.382 24.3867 180.675 23.88C180.968 23.3467 181.142 22.8133 181.195 22.28C181.275 21.7467 181.315 21.32 181.315 21V18.88Z" fill="white"/>
<path d="M190.604 8.32H196.004V11.2H196.124C196.844 10 197.777 9.13333 198.924 8.6C200.07 8.04 201.244 7.76 202.444 7.76C203.964 7.76 205.204 7.97333 206.164 8.4C207.15 8.8 207.924 9.37333 208.484 10.12C209.044 10.84 209.43 11.7333 209.644 12.8C209.884 13.84 210.004 15 210.004 16.28V29H204.324V17.32C204.324 15.6133 204.057 14.3467 203.524 13.52C202.99 12.6667 202.044 12.24 200.684 12.24C199.137 12.24 198.017 12.7067 197.324 13.64C196.63 14.5467 196.284 16.0533 196.284 18.16V29H190.604V8.32Z" fill="white"/>
<path d="M224.447 0.439998H245.807V5.72H230.727V11.84H244.568V16.72H230.727V23.72H246.128V29H224.447V0.439998Z" fill="white"/>
<path d="M259.185 31.56C258.572 33.24 257.718 34.44 256.625 35.16C255.532 35.88 254.012 36.24 252.065 36.24C251.478 36.24 250.892 36.2133 250.305 36.16C249.745 36.1333 249.172 36.0933 248.585 36.04V31.36C249.118 31.4133 249.665 31.4667 250.225 31.52C250.785 31.5733 251.345 31.5867 251.905 31.56C252.652 31.48 253.198 31.1867 253.545 30.68C253.918 30.1733 254.105 29.6133 254.105 29C254.105 28.5467 254.025 28.12 253.865 27.72L246.625 8.32H252.665L257.345 22.48H257.425L261.945 8.32H267.825L259.185 31.56Z" fill="white"/>
<path d="M282.847 16.44C282.581 15 282.101 13.9067 281.407 13.16C280.741 12.4133 279.714 12.04 278.327 12.04C277.421 12.04 276.661 12.2 276.047 12.52C275.461 12.8133 274.981 13.1867 274.607 13.64C274.261 14.0933 274.007 14.5733 273.847 15.08C273.714 15.5867 273.634 16.04 273.607 16.44H282.847ZM273.607 20.04C273.687 21.88 274.154 23.2133 275.007 24.04C275.861 24.8667 277.087 25.28 278.687 25.28C279.834 25.28 280.821 25 281.647 24.44C282.474 23.8533 282.981 23.24 283.167 22.6H288.167C287.367 25.08 286.141 26.8533 284.487 27.92C282.834 28.9867 280.834 29.52 278.487 29.52C276.861 29.52 275.394 29.2667 274.087 28.76C272.781 28.2267 271.674 27.48 270.767 26.52C269.861 25.56 269.154 24.4133 268.647 23.08C268.167 21.7467 267.927 20.28 267.927 18.68C267.927 17.1333 268.181 15.6933 268.687 14.36C269.194 13.0267 269.914 11.88 270.847 10.92C271.781 9.93333 272.887 9.16 274.167 8.6C275.474 8.04 276.914 7.76 278.487 7.76C280.247 7.76 281.781 8.10667 283.087 8.8C284.394 9.46667 285.461 10.3733 286.287 11.52C287.141 12.6667 287.754 13.9733 288.127 15.44C288.501 16.9067 288.634 18.44 288.527 20.04H273.607Z" fill="white"/>
<path d="M329.229 29H322.989L318.149 9.56H318.069L313.309 29H306.949L299.389 0.439998H305.669L310.189 19.88H310.269L315.229 0.439998H321.109L325.989 20.12H326.069L330.749 0.439998H336.909L329.229 29Z" fill="white"/>
<path d="M336.678 14.68C336.758 13.3467 337.091 12.24 337.678 11.36C338.264 10.48 339.011 9.77333 339.918 9.24C340.824 8.70667 341.838 8.33333 342.958 8.12C344.104 7.88 345.251 7.76 346.398 7.76C347.438 7.76 348.491 7.84 349.558 8C350.624 8.13333 351.598 8.41333 352.478 8.84C353.358 9.26667 354.078 9.86667 354.638 10.64C355.198 11.3867 355.478 12.3867 355.478 13.64V24.4C355.478 25.3333 355.531 26.2267 355.638 27.08C355.744 27.9333 355.931 28.5733 356.198 29H350.438C350.331 28.68 350.238 28.36 350.158 28.04C350.104 27.6933 350.064 27.3467 350.038 27C349.131 27.9333 348.064 28.5867 346.838 28.96C345.611 29.3333 344.358 29.52 343.078 29.52C342.091 29.52 341.171 29.4 340.318 29.16C339.464 28.92 338.718 28.5467 338.078 28.04C337.438 27.5333 336.931 26.8933 336.558 26.12C336.211 25.3467 336.038 24.4267 336.038 23.36C336.038 22.1867 336.238 21.2267 336.638 20.48C337.064 19.7067 337.598 19.0933 338.238 18.64C338.904 18.1867 339.651 17.8533 340.478 17.64C341.331 17.4 342.184 17.2133 343.038 17.08C343.891 16.9467 344.731 16.84 345.558 16.76C346.384 16.68 347.118 16.56 347.758 16.4C348.398 16.24 348.904 16.0133 349.278 15.72C349.651 15.4 349.824 14.9467 349.798 14.36C349.798 13.7467 349.691 13.2667 349.478 12.92C349.291 12.5467 349.024 12.2667 348.678 12.08C348.358 11.8667 347.971 11.7333 347.518 11.68C347.091 11.6 346.624 11.56 346.118 11.56C344.998 11.56 344.118 11.8 343.478 12.28C342.838 12.76 342.464 13.56 342.358 14.68H336.678ZM349.798 18.88C349.558 19.0933 349.251 19.2667 348.878 19.4C348.531 19.5067 348.144 19.6 347.718 19.68C347.318 19.76 346.891 19.8267 346.438 19.88C345.984 19.9333 345.531 20 345.078 20.08C344.651 20.16 344.224 20.2667 343.798 20.4C343.398 20.5333 343.038 20.72 342.718 20.96C342.424 21.1733 342.184 21.4533 341.998 21.8C341.811 22.1467 341.718 22.5867 341.718 23.12C341.718 23.6267 341.811 24.0533 341.998 24.4C342.184 24.7467 342.438 25.0267 342.758 25.24C343.078 25.4267 343.451 25.56 343.878 25.64C344.304 25.72 344.744 25.76 345.198 25.76C346.318 25.76 347.184 25.5733 347.798 25.2C348.411 24.8267 348.864 24.3867 349.158 23.88C349.451 23.3467 349.624 22.8133 349.678 22.28C349.758 21.7467 349.798 21.32 349.798 21V18.88Z" fill="white"/>
<path d="M363.487 22.28C363.487 22.8933 363.607 23.4267 363.847 23.88C364.113 24.3067 364.447 24.6667 364.847 24.96C365.247 25.2267 365.7 25.4267 366.207 25.56C366.74 25.6933 367.287 25.76 367.847 25.76C368.247 25.76 368.66 25.72 369.087 25.64C369.54 25.5333 369.94 25.3867 370.287 25.2C370.66 24.9867 370.967 24.72 371.207 24.4C371.447 24.0533 371.567 23.6267 371.567 23.12C371.567 22.2667 370.993 21.6267 369.847 21.2C368.727 20.7733 367.153 20.3467 365.127 19.92C364.3 19.7333 363.487 19.52 362.687 19.28C361.913 19.0133 361.22 18.68 360.607 18.28C359.993 17.8533 359.5 17.3333 359.127 16.72C358.753 16.08 358.567 15.3067 358.567 14.4C358.567 13.0667 358.82 11.9733 359.327 11.12C359.86 10.2667 360.553 9.6 361.407 9.12C362.26 8.61333 363.22 8.26667 364.287 8.08C365.353 7.86667 366.447 7.76 367.567 7.76C368.687 7.76 369.767 7.86667 370.807 8.08C371.873 8.29333 372.82 8.65333 373.647 9.16C374.473 9.66667 375.153 10.3467 375.687 11.2C376.247 12.0267 376.58 13.08 376.687 14.36H371.287C371.207 13.2667 370.793 12.5333 370.047 12.16C369.3 11.76 368.42 11.56 367.407 11.56C367.087 11.56 366.74 11.5867 366.367 11.64C365.993 11.6667 365.647 11.7467 365.327 11.88C365.033 12.0133 364.78 12.2133 364.567 12.48C364.353 12.72 364.247 13.0533 364.247 13.48C364.247 13.9867 364.433 14.4 364.807 14.72C365.18 15.04 365.66 15.3067 366.247 15.52C366.86 15.7067 367.553 15.88 368.327 16.04C369.1 16.2 369.887 16.3733 370.687 16.56C371.513 16.7467 372.313 16.9733 373.087 17.24C373.887 17.5067 374.593 17.8667 375.207 18.32C375.82 18.7467 376.313 19.2933 376.687 19.96C377.06 20.6 377.247 21.4 377.247 22.36C377.247 23.72 376.967 24.8667 376.407 25.8C375.873 26.7067 375.167 27.44 374.287 28C373.407 28.56 372.393 28.9467 371.247 29.16C370.127 29.4 368.98 29.52 367.807 29.52C366.607 29.52 365.433 29.4 364.287 29.16C363.14 28.92 362.113 28.52 361.207 27.96C360.327 27.4 359.593 26.6667 359.007 25.76C358.447 24.8267 358.14 23.6667 358.087 22.28H363.487Z" fill="white"/>
<path d="M2.76 60.44H9L20.92 79.6H21V60.44H26.88V89H20.6L8.72 69.88H8.64V89H2.76V60.44Z" fill="white"/>
<path d="M44.9284 76.44C44.6618 75 44.1818 73.9067 43.4884 73.16C42.8218 72.4133 41.7951 72.04 40.4084 72.04C39.5018 72.04 38.7418 72.2 38.1284 72.52C37.5418 72.8133 37.0618 73.1867 36.6884 73.64C36.3418 74.0933 36.0884 74.5733 35.9284 75.08C35.7951 75.5867 35.7151 76.04 35.6884 76.44H44.9284ZM35.6884 80.04C35.7684 81.88 36.2351 83.2133 37.0884 84.04C37.9418 84.8667 39.1684 85.28 40.7684 85.28C41.9151 85.28 42.9018 85 43.7284 84.44C44.5551 83.8533 45.0618 83.24 45.2484 82.6H50.2484C49.4484 85.08 48.2218 86.8533 46.5684 87.92C44.9151 88.9867 42.9151 89.52 40.5684 89.52C38.9418 89.52 37.4751 89.2667 36.1684 88.76C34.8618 88.2267 33.7551 87.48 32.8484 86.52C31.9418 85.56 31.2351 84.4133 30.7284 83.08C30.2484 81.7467 30.0084 80.28 30.0084 78.68C30.0084 77.1333 30.2618 75.6933 30.7684 74.36C31.2751 73.0267 31.9951 71.88 32.9284 70.92C33.8618 69.9333 34.9684 69.16 36.2484 68.6C37.5551 68.04 38.9951 67.76 40.5684 67.76C42.3284 67.76 43.8618 68.1067 45.1684 68.8C46.4751 69.4667 47.5418 70.3733 48.3684 71.52C49.2218 72.6667 49.8351 73.9733 50.2084 75.44C50.5818 76.9067 50.7151 78.44 50.6084 80.04H35.6884Z" fill="white"/>
<path d="M64.6172 89H58.2972L51.2172 68.32H57.1772L61.5372 82.44H61.6172L65.9772 68.32H71.6172L64.6172 89Z" fill="white"/>
<path d="M87.0784 76.44C86.8118 75 86.3318 73.9067 85.6384 73.16C84.9718 72.4133 83.9451 72.04 82.5584 72.04C81.6518 72.04 80.8918 72.2 80.2784 72.52C79.6918 72.8133 79.2118 73.1867 78.8384 73.64C78.4918 74.0933 78.2384 74.5733 78.0784 75.08C77.9451 75.5867 77.8651 76.04 77.8384 76.44H87.0784ZM77.8384 80.04C77.9184 81.88 78.3851 83.2133 79.2384 84.04C80.0918 84.8667 81.3184 85.28 82.9184 85.28C84.0651 85.28 85.0518 85 85.8784 84.44C86.7051 83.8533 87.2118 83.24 87.3984 82.6H92.3984C91.5984 85.08 90.3718 86.8533 88.7184 87.92C87.0651 88.9867 85.0651 89.52 82.7184 89.52C81.0918 89.52 79.6251 89.2667 78.3184 88.76C77.0118 88.2267 75.9051 87.48 74.9984 86.52C74.0918 85.56 73.3851 84.4133 72.8784 83.08C72.3984 81.7467 72.1584 80.28 72.1584 78.68C72.1584 77.1333 72.4118 75.6933 72.9184 74.36C73.4251 73.0267 74.1451 71.88 75.0784 70.92C76.0118 69.9333 77.1184 69.16 78.3984 68.6C79.7051 68.04 81.1451 67.76 82.7184 67.76C84.4784 67.76 86.0118 68.1067 87.3184 68.8C88.6251 69.4667 89.6918 70.3733 90.5184 71.52C91.3718 72.6667 91.9851 73.9733 92.3584 75.44C92.7318 76.9067 92.8651 78.44 92.7584 80.04H77.8384Z" fill="white"/>
<path d="M95.3272 68.32H100.727V72.16H100.807C101.074 71.52 101.434 70.9333 101.887 70.4C102.341 69.84 102.861 69.3733 103.447 69C104.034 68.6 104.661 68.2933 105.327 68.08C105.994 67.8667 106.687 67.76 107.407 67.76C107.781 67.76 108.194 67.8267 108.647 67.96V73.24C108.381 73.1867 108.061 73.1467 107.687 73.12C107.314 73.0667 106.954 73.04 106.607 73.04C105.567 73.04 104.687 73.2133 103.967 73.56C103.247 73.9067 102.661 74.3867 102.207 75C101.781 75.5867 101.474 76.28 101.287 77.08C101.101 77.88 101.007 78.7467 101.007 79.68V89H95.3272V68.32Z" fill="white"/>
<path d="M127.287 72H133.647C134.767 72 135.687 71.7333 136.407 71.2C137.127 70.6667 137.487 69.8 137.487 68.6C137.487 67.9333 137.367 67.3867 137.127 66.96C136.887 66.5333 136.567 66.2 136.167 65.96C135.767 65.72 135.3 65.56 134.767 65.48C134.26 65.3733 133.727 65.32 133.167 65.32H127.287V72ZM121.007 60.44H134.447C135.807 60.44 137.047 60.56 138.167 60.8C139.287 61.04 140.247 61.44 141.047 62C141.847 62.5333 142.46 63.2533 142.887 64.16C143.34 65.0667 143.567 66.1867 143.567 67.52C143.567 68.96 143.234 70.16 142.567 71.12C141.927 72.08 140.967 72.8667 139.687 73.48C141.447 73.9867 142.754 74.88 143.607 76.16C144.487 77.4133 144.927 78.9333 144.927 80.72C144.927 82.16 144.647 83.4133 144.087 84.48C143.527 85.52 142.767 86.3733 141.807 87.04C140.874 87.7067 139.794 88.2 138.567 88.52C137.367 88.84 136.127 89 134.847 89H121.007V60.44ZM127.287 84.12H134.007C134.62 84.12 135.207 84.0667 135.767 83.96C136.327 83.8267 136.82 83.6267 137.247 83.36C137.674 83.0667 138.007 82.68 138.247 82.2C138.514 81.72 138.647 81.1067 138.647 80.36C138.647 78.8933 138.234 77.8533 137.407 77.24C136.58 76.6 135.487 76.28 134.127 76.28H127.287V84.12Z" fill="white"/>
<path d="M167.171 89H161.771V86.12H161.651C160.931 87.32 159.998 88.1867 158.851 88.72C157.704 89.2533 156.531 89.52 155.331 89.52C153.811 89.52 152.558 89.32 151.571 88.92C150.611 88.52 149.851 87.96 149.291 87.24C148.731 86.4933 148.331 85.6 148.091 84.56C147.878 83.4933 147.771 82.32 147.771 81.04V68.32H153.451V80C153.451 81.7067 153.718 82.9867 154.251 83.84C154.784 84.6667 155.731 85.08 157.091 85.08C158.638 85.08 159.758 84.6267 160.451 83.72C161.144 82.7867 161.491 81.2667 161.491 79.16V68.32H167.171V89Z" fill="white"/>
<path d="M176.522 65.12H170.842V60.44H176.522V65.12ZM170.842 68.32H176.522V89H170.842V68.32Z" fill="white"/>
<path d="M180.354 60.44H186.034V89H180.354V60.44Z" fill="white"/>
<path d="M196.907 68.32H201.067V72.12H196.907V82.36C196.907 83.32 197.067 83.96 197.387 84.28C197.707 84.6 198.347 84.76 199.307 84.76C199.627 84.76 199.934 84.7467 200.227 84.72C200.52 84.6933 200.8 84.6533 201.067 84.6V89C200.587 89.08 200.054 89.1333 199.467 89.16C198.88 89.1867 198.307 89.2 197.747 89.2C196.867 89.2 196.027 89.1333 195.227 89C194.454 88.8933 193.76 88.6667 193.147 88.32C192.56 87.9733 192.094 87.48 191.747 86.84C191.4 86.2 191.227 85.36 191.227 84.32V72.12H187.787V68.32H191.227V62.12H196.907V68.32Z" fill="white"/>
<path d="M214.542 72.12H211.142V68.32H214.542V66.72C214.542 64.88 215.116 63.3733 216.262 62.2C217.409 61.0267 219.142 60.44 221.462 60.44C221.969 60.44 222.476 60.4667 222.982 60.52C223.489 60.5467 223.982 60.5733 224.462 60.6V64.84C223.796 64.76 223.102 64.72 222.382 64.72C221.609 64.72 221.049 64.9067 220.702 65.28C220.382 65.6267 220.222 66.2267 220.222 67.08V68.32H224.142V72.12H220.222V89H214.542V72.12Z" fill="white"/>
<path d="M230.863 78.68C230.863 79.5067 230.943 80.32 231.103 81.12C231.263 81.8933 231.529 82.6 231.903 83.24C232.303 83.8533 232.823 84.3467 233.463 84.72C234.103 85.0933 234.903 85.28 235.863 85.28C236.823 85.28 237.623 85.0933 238.263 84.72C238.929 84.3467 239.449 83.8533 239.823 83.24C240.223 82.6 240.503 81.8933 240.663 81.12C240.823 80.32 240.903 79.5067 240.903 78.68C240.903 77.8533 240.823 77.04 240.663 76.24C240.503 75.44 240.223 74.7333 239.823 74.12C239.449 73.5067 238.929 73.0133 238.263 72.64C237.623 72.24 236.823 72.04 235.863 72.04C234.903 72.04 234.103 72.24 233.463 72.64C232.823 73.0133 232.303 73.5067 231.903 74.12C231.529 74.7333 231.263 75.44 231.103 76.24C230.943 77.04 230.863 77.8533 230.863 78.68ZM225.183 78.68C225.183 77.0267 225.436 75.5333 225.943 74.2C226.449 72.84 227.169 71.6933 228.103 70.76C229.036 69.8 230.156 69.0667 231.463 68.56C232.769 68.0267 234.236 67.76 235.863 67.76C237.489 67.76 238.956 68.0267 240.263 68.56C241.596 69.0667 242.729 69.8 243.663 70.76C244.596 71.6933 245.316 72.84 245.823 74.2C246.329 75.5333 246.583 77.0267 246.583 78.68C246.583 80.3333 246.329 81.8267 245.823 83.16C245.316 84.4933 244.596 85.64 243.663 86.6C242.729 87.5333 241.596 88.2533 240.263 88.76C238.956 89.2667 237.489 89.52 235.863 89.52C234.236 89.52 232.769 89.2667 231.463 88.76C230.156 88.2533 229.036 87.5333 228.103 86.6C227.169 85.64 226.449 84.4933 225.943 83.16C225.436 81.8267 225.183 80.3333 225.183 78.68Z" fill="white"/>
<path d="M249.476 68.32H254.876V72.16H254.956C255.222 71.52 255.582 70.9333 256.036 70.4C256.489 69.84 257.009 69.3733 257.596 69C258.182 68.6 258.809 68.2933 259.476 68.08C260.142 67.8667 260.836 67.76 261.556 67.76C261.929 67.76 262.342 67.8267 262.796 67.96V73.24C262.529 73.1867 262.209 73.1467 261.836 73.12C261.462 73.0667 261.102 73.04 260.756 73.04C259.716 73.04 258.836 73.2133 258.116 73.56C257.396 73.9067 256.809 74.3867 256.356 75C255.929 75.5867 255.622 76.28 255.436 77.08C255.249 77.88 255.156 78.7467 255.156 79.68V89H249.476V68.32Z" fill="white"/>
<path d="M275.155 60.44H296.515V65.72H281.435V71.84H295.275V76.72H281.435V83.72H296.835V89H275.155V60.44Z" fill="white"/>
<path d="M311.133 89H304.813L297.733 68.32H303.693L308.053 82.44H308.133L312.493 68.32H318.133L311.133 89Z" fill="white"/>
<path d="M333.594 76.44C333.327 75 332.847 73.9067 332.154 73.16C331.487 72.4133 330.461 72.04 329.074 72.04C328.167 72.04 327.407 72.2 326.794 72.52C326.207 72.8133 325.727 73.1867 325.354 73.64C325.007 74.0933 324.754 74.5733 324.594 75.08C324.461 75.5867 324.381 76.04 324.354 76.44H333.594ZM324.354 80.04C324.434 81.88 324.901 83.2133 325.754 84.04C326.607 84.8667 327.834 85.28 329.434 85.28C330.581 85.28 331.567 85 332.394 84.44C333.221 83.8533 333.727 83.24 333.914 82.6H338.914C338.114 85.08 336.887 86.8533 335.234 87.92C333.581 88.9867 331.581 89.52 329.234 89.52C327.607 89.52 326.141 89.2667 324.834 88.76C323.527 88.2267 322.421 87.48 321.514 86.52C320.607 85.56 319.901 84.4133 319.394 83.08C318.914 81.7467 318.674 80.28 318.674 78.68C318.674 77.1333 318.927 75.6933 319.434 74.36C319.941 73.0267 320.661 71.88 321.594 70.92C322.527 69.9333 323.634 69.16 324.914 68.6C326.221 68.04 327.661 67.76 329.234 67.76C330.994 67.76 332.527 68.1067 333.834 68.8C335.141 69.4667 336.207 70.3733 337.034 71.52C337.887 72.6667 338.501 73.9733 338.874 75.44C339.247 76.9067 339.381 78.44 339.274 80.04H324.354Z" fill="white"/>
<path d="M341.843 68.32H347.243V72.16H347.323C347.589 71.52 347.949 70.9333 348.403 70.4C348.856 69.84 349.376 69.3733 349.963 69C350.549 68.6 351.176 68.2933 351.843 68.08C352.509 67.8667 353.203 67.76 353.923 67.76C354.296 67.76 354.709 67.8267 355.163 67.96V73.24C354.896 73.1867 354.576 73.1467 354.203 73.12C353.829 73.0667 353.469 73.04 353.123 73.04C352.083 73.04 351.203 73.2133 350.483 73.56C349.763 73.9067 349.176 74.3867 348.723 75C348.296 75.5867 347.989 76.28 347.803 77.08C347.616 77.88 347.523 78.7467 347.523 79.68V89H341.843V68.32Z" fill="white"/>
<path d="M366.79 91.56C366.176 93.24 365.323 94.44 364.23 95.16C363.136 95.88 361.616 96.24 359.67 96.24C359.083 96.24 358.496 96.2133 357.91 96.16C357.35 96.1333 356.776 96.0933 356.19 96.04V91.36C356.723 91.4133 357.27 91.4667 357.83 91.52C358.39 91.5733 358.95 91.5867 359.51 91.56C360.256 91.48 360.803 91.1867 361.15 90.68C361.523 90.1733 361.71 89.6133 361.71 89C361.71 88.5467 361.63 88.12 361.47 87.72L354.23 68.32H360.27L364.95 82.48H365.03L369.55 68.32H375.43L366.79 91.56Z" fill="white"/>
<path d="M383.732 68.32H387.892V72.12H383.732V82.36C383.732 83.32 383.892 83.96 384.212 84.28C384.532 84.6 385.172 84.76 386.132 84.76C386.452 84.76 386.759 84.7467 387.052 84.72C387.345 84.6933 387.625 84.6533 387.892 84.6V89C387.412 89.08 386.879 89.1333 386.292 89.16C385.705 89.1867 385.132 89.2 384.572 89.2C383.692 89.2 382.852 89.1333 382.052 89C381.279 88.8933 380.585 88.6667 379.972 88.32C379.385 87.9733 378.919 87.48 378.572 86.84C378.225 86.2 378.052 85.36 378.052 84.32V72.12H374.612V68.32H378.052V62.12H383.732V68.32Z" fill="white"/>
<path d="M389.794 60.44H395.474V71.2H395.594C396.314 70 397.234 69.1333 398.354 68.6C399.474 68.04 400.568 67.76 401.634 67.76C403.154 67.76 404.394 67.9733 405.354 68.4C406.341 68.8 407.114 69.3733 407.674 70.12C408.234 70.84 408.621 71.7333 408.834 72.8C409.074 73.84 409.194 75 409.194 76.28V89H403.514V77.32C403.514 75.6133 403.248 74.3467 402.714 73.52C402.181 72.6667 401.234 72.24 399.874 72.24C398.328 72.24 397.208 72.7067 396.514 73.64C395.821 74.5467 395.474 76.0533 395.474 78.16V89H389.794V60.44Z" fill="white"/>
<path d="M418.545 65.12H412.865V60.44H418.545V65.12ZM412.865 68.32H418.545V89H412.865V68.32Z" fill="white"/>
<path d="M422.218 68.32H427.618V71.2H427.738C428.458 70 429.391 69.1333 430.538 68.6C431.684 68.04 432.858 67.76 434.058 67.76C435.578 67.76 436.818 67.9733 437.778 68.4C438.764 68.8 439.538 69.3733 440.098 70.12C440.658 70.84 441.044 71.7333 441.258 72.8C441.498 73.84 441.618 75 441.618 76.28V89H435.938V77.32C435.938 75.6133 435.671 74.3467 435.138 73.52C434.604 72.6667 433.658 72.24 432.298 72.24C430.751 72.24 429.631 72.7067 428.938 73.64C428.244 74.5467 427.898 76.0533 427.898 78.16V89H422.218V68.32Z" fill="white"/>
<path d="M454.769 84.12C455.569 84.12 456.275 83.96 456.889 83.64C457.502 83.32 458.009 82.8933 458.409 82.36C458.809 81.8267 459.102 81.2267 459.289 80.56C459.502 79.8667 459.609 79.1467 459.609 78.4C459.609 77.5467 459.529 76.7467 459.369 76C459.209 75.2267 458.942 74.5467 458.569 73.96C458.195 73.3733 457.702 72.9067 457.089 72.56C456.475 72.2133 455.702 72.04 454.769 72.04C453.969 72.04 453.275 72.2 452.689 72.52C452.129 72.84 451.649 73.28 451.249 73.84C450.875 74.3733 450.595 75 450.409 75.72C450.249 76.4133 450.169 77.1467 450.169 77.92C450.169 78.6667 450.235 79.4133 450.369 80.16C450.529 80.88 450.782 81.5333 451.129 82.12C451.502 82.7067 451.982 83.1867 452.569 83.56C453.155 83.9333 453.889 84.12 454.769 84.12ZM465.009 87.68C465.009 88.5067 464.889 89.4533 464.649 90.52C464.435 91.5867 463.955 92.5733 463.209 93.48C462.462 94.4133 461.382 95.2 459.969 95.84C458.555 96.48 456.662 96.8 454.289 96.8C453.275 96.8 452.235 96.6667 451.169 96.4C450.129 96.16 449.169 95.7733 448.289 95.24C447.435 94.7067 446.715 94.0133 446.129 93.16C445.569 92.3333 445.249 91.3333 445.169 90.16H450.809C451.075 91.2267 451.595 91.96 452.369 92.36C453.142 92.7867 454.035 93 455.049 93C456.649 93 457.809 92.52 458.529 91.56C459.275 90.6 459.635 89.3867 459.609 87.92V85.2H459.529C458.915 86.2933 458.035 87.1067 456.889 87.64C455.769 88.1467 454.582 88.4 453.329 88.4C451.782 88.4 450.449 88.1333 449.329 87.6C448.209 87.04 447.289 86.2933 446.569 85.36C445.849 84.4 445.315 83.2933 444.969 82.04C444.649 80.76 444.489 79.4133 444.489 78C444.489 76.6667 444.675 75.3867 445.049 74.16C445.449 72.9067 446.022 71.8133 446.769 70.88C447.515 69.92 448.435 69.16 449.529 68.6C450.649 68.04 451.929 67.76 453.369 67.76C454.729 67.76 455.915 68.0133 456.929 68.52C457.969 69.0267 458.835 69.88 459.529 71.08H459.609V68.32H465.009V87.68Z" fill="white"/>
<path d="M0 0H468V104H0V0Z" fill="url(#paint0_linear_112_737)"/>
</g>
<defs>
<linearGradient id="paint0_linear_112_737" x1="234" y1="-35.0562" x2="234" y2="144.899" gradientUnits="userSpaceOnUse">
<stop stop-opacity="0.6"/>
<stop offset="0.310128" stop-opacity="0"/>
<stop offset="0.595495" stop-opacity="0"/>
<stop offset="1"/>
</linearGradient>
</defs>
</svg>
