<svg preserveAspectRatio="none" width="100%" height="100%" overflow="visible" style="display: block;" viewBox="0 0 94.9053 45.1162" fill="none" xmlns="http://www.w3.org/2000/svg">
<path id="Subtract" d="M24.0146 0C27.7457 0 30.9344 0.542517 33.5801 1.62793C36.2934 2.7133 38.5322 4.17143 40.2959 6.00293C42.0597 7.83456 43.4502 9.97189 44.4678 12.4141C45.4853 14.8562 46.2659 17.4339 46.8086 20.1475C47.3513 22.8609 47.6905 25.6421 47.8262 28.4912C47.9618 31.3404 48.0293 34.0887 48.0293 36.7344C48.0293 39.3799 47.9618 42.1275 47.8262 44.9766C47.824 45.0231 47.8207 45.0697 47.8184 45.1162H38.6045C38.7818 41.9927 38.8711 39.1644 38.8711 36.6318C38.8711 34.8681 38.8374 32.9349 38.7695 30.832C38.7695 28.6612 38.5999 26.5239 38.2607 24.4209C37.9894 22.2502 37.548 20.1473 36.9375 18.1123C36.3948 16.0772 35.5468 14.3137 34.3936 12.8213C33.3081 11.261 31.9176 10.0054 30.2217 9.05566C28.5258 8.10604 26.4567 7.63184 24.0146 7.63184C21.5726 7.63184 19.5035 8.10602 17.8076 9.05566C16.1117 10.0054 14.6874 11.261 13.5342 12.8213C12.4488 14.3137 11.6008 16.0772 10.9902 18.1123C10.4476 20.1473 10.0062 22.2502 9.66699 24.4209C9.39564 26.5239 9.22604 28.6612 9.1582 30.832V36.6318C9.1582 39.1644 9.21873 41.9927 9.33691 45.1162H0.210938C0.20861 45.0697 0.205343 45.0231 0.203125 44.9766C0.0674558 42.1275 7.17344e-06 39.3799 0 36.7344C0 34.0887 0.0674486 31.3404 0.203125 28.4912C0.338813 25.6421 0.678024 22.8609 1.2207 20.1475C1.7634 17.434 2.54396 14.8562 3.56152 12.4141C4.5791 9.97189 5.96961 7.83456 7.7334 6.00293C9.49714 4.17138 11.7021 2.71331 14.3477 1.62793C17.0612 0.542522 20.2836 5.8873e-06 24.0146 0ZM94.9053 45.1162H86.7646V12.3125H86.5615L64.251 45.1162H56.375L87.9863 0H94.9053V45.1162Z" fill="var(--fill-0, #E40C01)"/>
</svg>
