<svg preserveAspectRatio="none" width="100%" height="100%" overflow="visible" style="display: block;" viewBox="0 0 41.6667 41.6875" fill="none" xmlns="http://www.w3.org/2000/svg">
<path id="Vector" d="M28.1458 0.0208333C21.125 0.0208333 15.3333 5.39583 14.6667 12.25C12.496 13.0671 10.6276 14.5293 9.31285 16.44C7.99809 18.3507 7.3 20.6182 7.3125 22.9375V23.1875C3.14583 24.125 0 27.8542 0 32.3125C0 37.4792 4.20833 41.6875 9.375 41.6875C13.8333 41.6875 17.5625 38.5625 18.5 34.375H18.75C23.5833 34.375 27.7708 31.4167 29.4375 27.0208C36.2917 26.3542 41.6667 20.5625 41.6667 13.5417C41.6667 6.08333 35.5833 0 28.125 0L28.1458 0.0208333ZM9.39583 37.5208C8.0145 37.5208 6.68974 36.9721 5.71299 35.9953C4.73623 35.0186 4.1875 33.6938 4.1875 32.3125C4.1875 29.875 5.875 27.8333 8.14583 27.25C8.16667 27.3125 8.22917 27.375 8.25 27.4583C8.47917 28 8.77083 28.5417 9.08333 29.0417C9.1875 29.1875 9.27083 29.3542 9.375 29.5C9.75 30.0417 10.1458 30.5417 10.6042 31L10.6875 31.0833C11.1458 31.5417 11.6458 31.9375 12.1875 32.3125C12.3542 32.4375 12.5208 32.5417 12.7083 32.6458C13.1667 32.9375 13.6458 33.1875 14.1458 33.4167C14.25 33.4583 14.3333 33.5208 14.4375 33.5625C14.1546 34.6916 13.5031 35.6941 12.5861 36.4111C11.6691 37.1281 10.539 37.5186 9.375 37.5208H9.39583ZM17.1458 30.0625C16.8063 29.9794 16.4723 29.875 16.1458 29.75C14.7705 29.2255 13.5874 28.2948 12.7538 27.0816C11.9202 25.8685 11.4756 24.4303 11.4792 22.9583C11.4792 20.3333 12.8333 18 14.9792 16.7292C14.9792 16.7708 15 16.8125 15.0208 16.875C15.1458 17.375 15.2917 17.8542 15.4792 18.3333C15.5208 18.4583 15.5833 18.6042 15.625 18.7292C15.8333 19.25 16.0625 19.75 16.3333 20.2292C16.3333 20.25 16.375 20.2917 16.375 20.3125C16.625 20.7708 16.9167 21.2083 17.2292 21.625C17.3125 21.7292 17.3958 21.8542 17.4792 21.9583C18.1458 22.8333 18.9375 23.6042 19.7917 24.2708C19.8958 24.3542 20 24.4375 20.125 24.5208C20.5417 24.8333 20.9792 25.125 21.4375 25.375C21.4583 25.375 21.4792 25.3958 21.5 25.4167C21.9792 25.6875 22.4792 25.9167 23 26.125C23.125 26.1667 23.25 26.2292 23.3958 26.2708C23.875 26.4583 24.375 26.6042 24.875 26.7292C24.9167 26.7292 24.9583 26.75 25 26.7708C23.4375 29.3542 20.3125 30.7708 17.125 30.0833L17.1458 30.0625Z" fill="var(--fill-0, white)"/>
</svg>
