<svg preserveAspectRatio="none" width="100%" height="100%" overflow="visible" style="display: block;" viewBox="0 0 43.9583 40.625" fill="none" xmlns="http://www.w3.org/2000/svg">
<path id="Vector" d="M21.9792 11.4583C15.0833 11.4583 9.47917 17.0625 9.47917 23.9583C9.47917 27.9375 11.3125 30.0625 13.0625 32.1458C13.7292 32.9167 14.4167 33.7292 15.0417 34.6667C15.4167 35.2292 15.6875 35.8542 15.875 36.4583H13.6458V40.625H30.3125V36.4583H28.0833C28.2917 35.8542 28.5417 35.2292 28.9167 34.6667C29.5417 33.75 30.2083 32.9375 30.875 32.1667C32.6458 30.0833 34.4792 27.9167 34.4792 23.9583C34.4792 17.0625 28.875 11.4583 21.9792 11.4583ZM27.6875 29.4583C26.9792 30.2917 26.1875 31.2083 25.4375 32.3333C24.5417 33.6667 24.0417 35.1458 23.75 36.4375H20.1667C19.875 35.1458 19.375 33.6667 18.4792 32.3333C17.7083 31.1875 16.9167 30.25 16.2083 29.4167C14.6458 27.5833 13.625 26.375 13.625 23.9375C13.625 19.3333 17.3542 15.6042 21.9583 15.6042C26.5625 15.6042 30.2917 19.3333 30.2917 23.9375C30.2917 26.3542 29.25 27.5833 27.6667 29.4375L27.6875 29.4583ZM19.8958 3.64583V7.29167H24.0625V0H19.8958V3.64583ZM2.29167 9.72917L1.14583 11.4583L0 13.1875L3.125 15.2708L6.25 17.3542L7.39583 15.625L8.54167 13.8958L5.41667 11.8125L2.29167 9.72917ZM11.2083 1.97917L9.47917 3.125L7.75 4.27083L9.83333 7.39583L11.9167 10.5208L13.6458 9.375L15.375 8.22917L13.2917 5.10417L11.2083 1.97917ZM41.6667 9.72917L38.5417 11.8125L35.4167 13.8958L36.5625 15.625L37.7083 17.3542L40.8333 15.2708L43.9583 13.1875L42.8125 11.4583L41.6667 9.72917ZM30.6667 5.10417L28.5833 8.22917L30.3125 9.375L32.0417 10.5208L34.125 7.39583L36.2083 4.27083L34.4792 3.125L32.75 1.97917L30.6667 5.10417Z" fill="var(--fill-0, white)"/>
</svg>
