<svg preserveAspectRatio="none" width="100%" height="100%" overflow="visible" style="display: block;" viewBox="0 0 102.537 45.9111" fill="none" xmlns="http://www.w3.org/2000/svg">
<path id="Subtract" d="M24.0146 0C27.7457 6.13521e-07 30.9344 0.542517 33.5801 1.62793C36.2934 2.71329 38.5322 4.17145 40.2959 6.00293C42.0597 7.83454 43.4502 9.97192 44.4678 12.4141C45.4853 14.8562 46.2659 17.434 46.8086 20.1475C47.3513 22.861 47.6905 25.643 47.8262 28.4922C47.9618 31.3412 48.0293 34.0888 48.0293 36.7344C48.0293 39.38 47.9618 42.1275 47.8262 44.9766C47.8113 45.2889 47.7932 45.6004 47.7734 45.9111H38.5605C38.5623 45.8709 38.5648 45.8303 38.5664 45.79C38.7699 42.3985 38.8711 39.3461 38.8711 36.6328C38.8711 34.869 38.8374 32.935 38.7695 30.832C38.7695 28.6614 38.5999 26.5247 38.2607 24.4219C37.9894 22.2511 37.548 20.1474 36.9375 18.1123C36.3948 16.0773 35.5467 14.3137 34.3936 12.8213C33.3082 11.261 31.9176 10.0054 30.2217 9.05566C28.5258 8.10605 26.4567 7.63184 24.0146 7.63184C21.5726 7.63184 19.5035 8.10605 17.8076 9.05566C16.1117 10.0054 14.6865 11.261 13.5332 12.8213C12.4479 14.3136 11.5998 16.0773 10.9893 18.1123C10.4466 20.1474 10.0062 22.2511 9.66699 24.4219C9.39567 26.5247 9.22604 28.6614 9.1582 30.832V36.6328C9.15821 39.3461 9.22567 42.3985 9.36133 45.79C9.36379 45.8303 9.36658 45.871 9.36914 45.9111H0.255859C0.236093 45.6004 0.217999 45.2889 0.203125 44.9766C0.067453 42.1275 4.41304e-06 39.38 0 36.7344C0 34.0888 0.0674621 31.3412 0.203125 28.4922C0.338801 25.643 0.677998 22.861 1.2207 20.1475C1.76341 17.434 2.54397 14.8562 3.56152 12.4141C4.57909 9.97192 5.96963 7.83454 7.7334 6.00293C9.49714 4.17141 11.7021 2.71329 14.3477 1.62793C17.0612 0.542517 20.2835 0 24.0146 0ZM79.9473 0C83.0677 3.14372e-05 85.9848 0.475102 88.6982 1.4248C91.4794 2.30668 93.8878 3.62891 95.9229 5.39258C97.958 7.08853 99.5518 9.22587 100.705 11.8037C101.926 14.3815 102.537 17.3661 102.537 20.7578C102.537 23.9462 102.028 26.7619 101.011 29.2041C100.061 31.6463 98.7717 33.8511 97.1436 35.8184C95.5155 37.7177 93.6498 39.4476 91.5469 41.0078C89.444 42.568 87.2737 44.0608 85.0352 45.4854C84.8011 45.6272 84.567 45.7693 84.333 45.9111H69.8555C71.5081 44.7704 73.2092 43.6773 74.9609 42.6357C78.0136 40.7363 80.6936 39.0065 83 37.4463C85.3063 35.8183 87.2059 34.1905 88.6982 32.5625C90.2585 30.9344 91.412 29.17 92.1582 27.2705C92.9722 25.3711 93.3789 23.1661 93.3789 20.6562C93.3789 18.6891 93.0059 16.9254 92.2598 15.3652C91.5136 13.7372 90.4958 12.3466 89.207 11.1934C87.9859 10.0401 86.527 9.15741 84.8311 8.54688C83.1353 7.93645 81.3377 7.63187 79.4385 7.63184C76.9285 7.63184 74.7574 8.17436 72.9258 9.25977C71.162 10.2773 69.7031 11.6341 68.5498 13.3301C67.3967 15.0259 66.5485 16.9592 66.0059 19.1299C65.531 21.2329 65.3277 23.3702 65.3955 25.541H56.7461C56.5426 21.8778 56.9156 18.4857 57.8652 15.3652C58.815 12.2447 60.2739 9.56483 62.2412 7.32617C64.2763 5.0197 66.7866 3.22251 69.7715 1.93359C72.7564 0.644682 76.1483 0 79.9473 0Z" fill="var(--fill-0, #E40C01)"/>
</svg>
