<svg preserveAspectRatio="none" width="100%" height="100%" overflow="visible" style="display: block;" viewBox="0 0 41.6667 41.6667" fill="none" xmlns="http://www.w3.org/2000/svg">
<path id="Vector" d="M21.0417 41.6667C18.125 41.6667 15.391 41.1111 12.8396 40C10.2882 38.8889 8.06597 37.3875 6.17292 35.4958C4.27986 33.6042 2.77778 31.3819 1.66667 28.8292C0.555555 26.2764 0 23.5417 0 20.625C0 15.5556 1.61458 11.0854 4.84375 7.21458C8.07292 3.34375 12.1875 0.938889 17.1875 0C16.5625 3.4375 16.7535 6.79722 17.7604 10.0792C18.7674 13.3611 20.5035 16.234 22.9688 18.6979C25.434 21.1618 28.3076 22.8979 31.5896 23.9063C34.8715 24.9146 38.2306 25.1056 41.6667 24.4792C40.7639 29.4792 38.3681 33.5938 34.4792 36.8229C30.5903 40.0521 26.1111 41.6667 21.0417 41.6667Z" fill="var(--fill-0, white)"/>
</svg>
