<svg preserveAspectRatio="none" width="100%" height="100%" overflow="visible" style="display: block;" viewBox="0 0 20 20" fill="none" xmlns="http://www.w3.org/2000/svg">
<path id="Icon" d="M10 20C8.61667 20 7.31667 19.7375 6.1 19.2125C4.88333 18.6875 3.825 17.975 2.925 17.075C2.025 16.175 1.3125 15.1167 0.7875 13.9C0.2625 12.6833 0 11.3833 0 10C0 8.6 0.2625 7.29583 0.7875 6.0875C1.3125 4.87917 2.025 3.825 2.925 2.925L4.325 4.325C3.59167 5.05833 3.02083 5.90833 2.6125 6.875C2.20417 7.84167 2 8.88333 2 10C2 12.2333 2.775 14.125 4.325 15.675C5.875 17.225 7.76667 18 10 18C12.2333 18 14.125 17.225 15.675 15.675C17.225 14.125 18 12.2333 18 10C18 8.88333 17.7958 7.84167 17.3875 6.875C16.9792 5.90833 16.4083 5.05833 15.675 4.325L17.075 2.925C17.975 3.825 18.6875 4.87917 19.2125 6.0875C19.7375 7.29583 20 8.6 20 10C20 11.3833 19.7375 12.6833 19.2125 13.9C18.6875 15.1167 17.975 16.175 17.075 17.075C16.175 17.975 15.1167 18.6875 13.9 19.2125C12.6833 19.7375 11.3833 20 10 20V20M9 11V0H11V11H9V11" fill="var(--fill-0, white)"/>
</svg>
