<svg preserveAspectRatio="none" width="100%" height="100%" overflow="visible" style="display: block;" viewBox="0 0 24.0424 24.6745" fill="none" xmlns="http://www.w3.org/2000/svg">
<path id="Icon" d="M1.33333 24.6745V20.6745H5.46667L2.06667 9.54118C1.46667 9.20784 0.972222 8.71895 0.583333 8.07451C0.194444 7.43007 0 6.74118 0 6.00784C0 4.89673 0.388889 3.95229 1.16667 3.17451C1.94444 2.39673 2.88889 2.00784 4 2.00784C4.86667 2.00784 5.63889 2.25784 6.31667 2.75784C6.99444 3.25784 7.46667 3.89673 7.73333 4.67451H12V3.34118C12 2.9634 12.1278 2.64673 12.3833 2.39118C12.6389 2.13562 12.9556 2.00784 13.3333 2.00784C13.5333 2.00784 13.7278 2.05229 13.9167 2.14118C14.1056 2.23007 14.2667 2.3634 14.4 2.54118V2.54118L16.6667 0.407843C16.8667 0.207843 17.1056 0.0800654 17.3833 0.0245098C17.6611 -0.0310458 17.9333 0.00784314 18.2 0.141176L23.4 2.54118C23.6667 2.67451 23.85 2.86895 23.95 3.12451C24.05 3.38007 24.0444 3.63007 23.9333 3.87451C23.8 4.14118 23.6056 4.3134 23.35 4.39118C23.0944 4.46895 22.8444 4.45229 22.6 4.34118L17.8 2.14118L14.6667 5.07451V6.94118L17.8 9.80784L22.6 7.60784C22.8444 7.49673 23.1 7.48562 23.3667 7.57451C23.6333 7.6634 23.8222 7.83007 23.9333 8.07451C24.0667 8.34118 24.0778 8.59673 23.9667 8.84118C23.8556 9.08562 23.6667 9.27451 23.4 9.40784L18.2 11.8745C17.9333 12.0078 17.6611 12.0467 17.3833 11.9912C17.1056 11.9356 16.8667 11.8078 16.6667 11.6078L14.4 9.47451V9.47451C14.2667 9.60784 14.1056 9.73006 13.9167 9.84118C13.7278 9.95229 13.5333 10.0078 13.3333 10.0078C12.9556 10.0078 12.6389 9.88007 12.3833 9.62451C12.1278 9.36895 12 9.05229 12 8.67451V7.34118H7.73333C7.66667 7.51895 7.59444 7.68562 7.51667 7.84118C7.43889 7.99673 7.33333 8.1634 7.2 8.34118L13.8667 20.6745H18.6667V24.6745H1.33333V24.6745M4 7.34118C4.37778 7.34118 4.69444 7.2134 4.95 6.95784C5.20556 6.70229 5.33333 6.38562 5.33333 6.00784C5.33333 5.63007 5.20556 5.3134 4.95 5.05784C4.69444 4.80229 4.37778 4.67451 4 4.67451C3.62222 4.67451 3.30556 4.80229 3.05 5.05784C2.79444 5.3134 2.66667 5.63007 2.66667 6.00784C2.66667 6.38562 2.79444 6.70229 3.05 6.95784C3.30556 7.2134 3.62222 7.34118 4 7.34118V7.34118M8.2 20.6745H10.8L5.06667 10.0078C5.06667 10.0078 5.04444 10.0078 5 10.0078C4.95556 10.0078 4.93333 10.0078 4.93333 10.0078L8.2 20.6745V20.6745M10.8 20.6745V20.6745V20.6745V20.6745V20.6745V20.6745V20.6745" fill="var(--fill-0, white)"/>
</svg>
