<svg preserveAspectRatio="none" width="100%" height="100%" overflow="visible" style="display: block;" viewBox="0 0 103.827 45.1172" fill="none" xmlns="http://www.w3.org/2000/svg">
<path id="Subtract" d="M24.0146 0C27.7457 0 30.9344 0.542552 33.5801 1.62793C36.2936 2.71332 38.5321 4.17232 40.2959 6.00391C42.0597 7.83554 43.4502 9.97286 44.4678 12.415C45.4853 14.8572 46.2659 17.435 46.8086 20.1484C47.3513 22.8619 47.6905 25.6431 47.8262 28.4922C47.9618 31.3413 48.0293 34.0888 48.0293 36.7344C48.0293 39.3799 47.9618 42.1275 47.8262 44.9766C47.8239 45.0233 47.8207 45.0705 47.8184 45.1172H38.6045C38.7818 41.9936 38.8711 39.1654 38.8711 36.6328C38.8711 34.8691 38.8374 32.9359 38.7695 30.833C38.7695 28.6622 38.5999 26.5249 38.2607 24.4219C37.9894 22.2512 37.549 20.1483 36.9385 18.1133C36.3958 16.0781 35.5478 14.3137 34.3945 12.8213C33.3091 11.261 31.9176 10.0064 30.2217 9.05664C28.5258 8.10702 26.4567 7.63184 24.0146 7.63184C21.5726 7.63186 19.5035 8.10693 17.8076 9.05664C16.1118 10.0063 14.6874 11.2612 13.5342 12.8213C12.4488 14.3137 11.6008 16.0781 10.9902 18.1133C10.4476 20.1483 10.0062 22.2511 9.66699 24.4219C9.39564 26.5249 9.22604 28.6622 9.1582 30.833V36.6328C9.1582 39.1654 9.21872 41.9936 9.33691 45.1172H0.211914C0.209577 45.0705 0.206329 45.0233 0.204102 44.9766C0.0684385 42.1275 0 39.3799 0 36.7344C4.93177e-06 34.0888 0.0684301 31.3413 0.204102 28.4922C0.339781 25.6431 0.678998 22.8619 1.22168 20.1484C1.76436 17.435 2.54402 14.8571 3.56152 12.415C4.57908 9.97291 5.96966 7.83551 7.7334 6.00391C9.49718 4.17229 11.702 2.71334 14.3477 1.62793C17.0611 0.542536 20.2836 1.98572e-05 24.0146 0ZM100.095 8.85352H70.9922L67.126 29.6113L67.3291 29.8154C68.8894 28.0516 70.8908 26.7623 73.333 25.9482C75.8428 25.0664 78.3188 24.626 80.7607 24.626C83.9491 24.626 86.9682 25.1348 89.8174 26.1523C92.6666 27.1699 95.1431 28.73 97.2461 30.833C99.349 32.8681 101.011 35.446 102.232 38.5664C103.016 40.5262 103.547 42.71 103.827 45.1172H94.5781C94.3749 44.0734 94.0773 43.077 93.6846 42.1279C92.9384 40.0928 91.8523 38.3631 90.4277 36.9385C89.0031 35.4461 87.2734 34.2926 85.2383 33.4785C83.271 32.6645 81.0661 32.2578 78.624 32.2578C75.7749 32.2579 73.2308 32.9015 70.9922 34.1904C68.8214 35.4115 66.8883 37.0401 65.1924 39.0752L57.7637 38.668L64.4805 1.22168H100.095V8.85352Z" fill="var(--fill-0, #E40C01)"/>
</svg>
