<svg preserveAspectRatio="none" width="100%" height="100%" overflow="visible" style="display: block;" viewBox="0 0 1365.27 1356" fill="none" xmlns="http://www.w3.org/2000/svg">
<g id="Frame 45">
<ellipse id="Ellipse 17" cx="8.79" cy="678" rx="4.27181" ry="4.26952" fill="var(--fill-0, white)"/>
<path id="Ellipse 12" d="M686.908 0.25C1061.42 0.250099 1365.02 303.689 1365.02 678C1365.02 1052.31 1061.42 1355.75 686.908 1355.75C312.396 1355.75 8.79363 1052.31 8.79363 678C8.79363 303.689 312.396 0.25 686.908 0.25Z" stroke="var(--stroke-0, white)" stroke-width="0.5"/>
<path id="Ellipse 13" d="M684.778 44.6531C1035.85 44.6531 1320.45 328.213 1320.46 678C1320.46 1027.79 1035.85 1311.35 684.778 1311.35C333.703 1311.35 49.1016 1027.79 49.1016 678C49.1017 328.213 333.703 44.6532 684.778 44.6531Z" stroke="var(--stroke-0, white)" stroke-width="0.5"/>
<path id="Ellipse 14" d="M684.779 23.3054C1047.69 23.3057 1341.88 316.423 1341.88 678C1341.88 1039.58 1047.69 1332.69 684.779 1332.7C321.87 1332.7 27.6757 1039.58 27.6757 678C27.6758 316.423 321.87 23.3054 684.779 23.3054Z" stroke="var(--stroke-0, white)" stroke-width="0.5"/>
<ellipse id="Ellipse 15" cx="1063.59" cy="1242.43" rx="4.28522" ry="4.26952" fill="var(--fill-0, white)"/>
<ellipse id="Ellipse 18" cx="1316.42" cy="755.705" rx="4.28522" ry="4.26952" fill="var(--fill-0, white)"/>
<ellipse id="Ellipse 16" cx="410.524" cy="83.6826" rx="4.28522" ry="4.26952" fill="var(--fill-0, white)"/>
</g>
</svg>
