<svg preserveAspectRatio="none" width="100%" height="100%" overflow="visible" style="display: block;" viewBox="0 0 49.9924 50.0036" fill="none" xmlns="http://www.w3.org/2000/svg">
<path id="Vector" fill-rule="evenodd" clip-rule="evenodd" d="M4.85714 4.85714C5.10714 4.60714 5.45 4.46429 5.80357 4.46429H28.0929L39.2857 15.6571V18.3036C39.2857 18.8956 39.5209 19.4633 39.9395 19.8819C40.3581 20.3005 40.9259 20.5357 41.5179 20.5357C42.1099 20.5357 42.6776 20.3005 43.0962 19.8819C43.5148 19.4633 43.75 18.8956 43.75 18.3036V14.7321C43.7482 14.1405 43.5134 13.5734 43.0964 13.1536L30.5964 0.653571C30.1766 0.236638 29.6095 0.00183355 29.0179 0L5.80357 0C4.26437 0 2.78821 0.611446 1.69983 1.69983C0.611446 2.78821 0 4.26437 0 5.80357L0 44.1964C0 44.9586 0.150114 45.7132 0.441771 46.4174C0.733427 47.1215 1.16092 47.7613 1.69983 48.3002C2.23874 48.8391 2.87852 49.2666 3.58264 49.5582C4.28676 49.8499 5.04144 50 5.80357 50H15.625C16.217 50 16.7848 49.7648 17.2034 49.3462C17.622 48.9276 17.8571 48.3599 17.8571 47.7679C17.8571 47.1759 17.622 46.6081 17.2034 46.1895C16.7848 45.7709 16.217 45.5357 15.625 45.5357H5.80357C5.44837 45.5357 5.10772 45.3946 4.85655 45.1435C4.60539 44.8923 4.46429 44.5516 4.46429 44.1964V5.80357C4.46429 5.44643 4.60714 5.10714 4.85714 4.85714ZM21.9214 44.1679L32.4143 25.25C32.7145 24.6007 33.1926 24.0498 33.7931 23.6611C34.3935 23.2724 35.0919 23.0617 35.8071 23.0536C37.2429 23.0536 38.6143 23.9464 39.2 25.2571L49.5214 44.1893C50.1464 45.3536 50.15 46.8107 49.5286 47.975C49.2066 48.5812 48.7272 49.0895 48.1408 49.4465C47.5545 49.8035 46.8828 49.9959 46.1964 50.0036H25.2321C23.8571 50.0036 22.5357 49.2 21.9036 47.9786C21.5986 47.3939 21.4403 46.7438 21.4422 46.0844C21.444 45.425 21.606 44.7758 21.9143 44.1929L21.9214 44.1679ZM35.7321 30.4179C36.9643 30.4179 37.9643 31.4179 37.9643 32.6464V37.1107C37.9643 37.7027 37.7291 38.2705 37.3105 38.6891C36.8919 39.1077 36.3241 39.3429 35.7321 39.3429C35.1401 39.3429 34.5724 39.1077 34.1538 38.6891C33.7352 38.2705 33.5 37.7027 33.5 37.1107V32.6464C33.5 31.4143 34.5 30.4143 35.7321 30.4143M35.7143 46.8714H35.8143C36.5204 46.8587 37.1929 46.5677 37.6855 46.0616C38.1781 45.5555 38.4509 44.8754 38.4445 44.1692C38.4382 43.463 38.1532 42.7879 37.6516 42.2908C37.1499 41.7936 36.4723 41.5147 35.7661 41.5147C35.0598 41.5147 34.3822 41.7936 33.8806 42.2908C33.379 42.7879 33.094 43.463 33.0876 44.1692C33.0813 44.8754 33.354 45.5555 33.8466 46.0616C34.3392 46.5677 35.0117 46.8587 35.7179 46.8714" fill="var(--fill-0, white)"/>
</svg>
