<svg preserveAspectRatio="none" width="100%" height="100%" overflow="visible" style="display: block;" viewBox="0 0 520.625 238" fill="none" xmlns="http://www.w3.org/2000/svg">
<path id="Subtract" d="M129.078 0C147.902 0 165.247 3.88906 181.113 11.667C196.979 19.1767 210.559 29.9049 221.854 43.8516C233.148 57.7981 241.887 74.695 248.072 94.542C254.526 114.121 257.754 135.98 257.754 160.118C257.754 184.257 254.526 206.25 248.072 226.097C246.782 230.181 245.379 234.149 243.866 238H156.775C160.173 234.404 163.177 230.169 165.785 225.292C170.088 217.246 173.449 207.725 175.869 196.729C178.289 185.732 179.5 173.528 179.5 160.118C179.5 146.976 178.289 134.907 175.869 123.91C173.449 112.646 170.088 103.124 165.785 95.3467C161.483 87.3006 156.104 81.1321 149.65 76.8408C143.465 72.2813 136.608 70.001 129.078 70.001C121.28 70.001 114.288 72.2815 108.104 76.8408C101.919 81.1321 96.5403 87.3007 91.9688 95.3467C87.6662 103.125 84.304 112.646 81.8838 123.91C79.4636 134.907 78.2539 146.976 78.2539 160.118C78.2539 173.528 79.4636 185.732 81.8838 196.729C84.304 207.725 87.6662 217.246 91.9688 225.292C94.7395 230.169 97.8074 234.404 101.171 238H13.6348C12.0776 234.149 10.6238 230.181 9.27734 226.097C3.09234 206.25 0 184.257 0 160.118C1.02115e-05 135.98 3.09234 114.121 9.27734 94.542C15.7313 74.6949 24.606 57.7982 35.9004 43.8516C47.4636 29.905 61.0437 19.1767 76.6406 11.667C92.5064 3.88917 109.985 4.9992e-05 129.078 0ZM357.663 210.004C358.1 221.546 360.93 230.879 366.154 238H282.06C281.981 237.653 281.904 237.306 281.83 236.959C280.217 228.108 279.409 219.123 279.409 210.004H357.663ZM403.244 0.402344C418.303 0.402344 431.883 2.54768 443.984 6.83887C456.354 10.8619 466.842 16.7631 475.447 24.541C484.321 32.0507 491.045 41.3034 495.616 52.2998C500.457 63.028 502.877 75.0976 502.877 88.5078C502.877 102.991 500.053 114.925 494.406 124.312C489.028 133.431 481.229 141.344 471.011 148.049C486.608 152.877 498.708 161.594 507.313 174.199C516.188 186.537 520.625 201.825 520.625 220.062C520.625 226.271 520.117 232.25 519.106 238H435.433C439.788 231.319 441.968 223.463 441.968 214.43C441.968 201.288 438.069 191.364 430.271 184.659C422.472 177.954 413.194 174.602 402.438 174.602C399.748 174.602 397.194 174.87 394.773 175.406C392.353 175.674 389.664 176.077 386.706 176.613V127.129C388.857 127.397 390.606 127.531 391.95 127.531H395.983C405.933 127.531 414.001 124.581 420.186 118.681C426.371 112.78 429.463 105.136 429.463 95.749C429.463 86.6301 426.505 79.2544 420.589 73.6221C414.942 67.9899 407.546 65.1738 398.403 65.1738C388.723 65.1739 380.925 68.3925 375.009 74.8291C369.093 81.266 366.134 89.5807 366.134 99.7725H293.124C295.006 83.9484 298.906 69.8677 304.822 57.5303C311.007 45.1928 318.806 34.8671 328.218 26.5527C337.63 17.9702 348.655 11.5325 361.294 7.24121C373.933 2.68181 387.916 0.402352 403.244 0.402344Z" fill="none" stroke="rgba(255,255,255,0.15)" stroke-width="1"/>
</svg>
