<svg preserveAspectRatio="none" width="100%" height="100%" overflow="visible" style="display: block;" viewBox="0 0 41.6667 41.6667" fill="none" xmlns="http://www.w3.org/2000/svg">
<path id="Vector" d="M20.8333 41.6667C17.9514 41.6667 15.2431 41.1194 12.7083 40.025C10.1736 38.9306 7.96875 37.4465 6.09375 35.5729C4.21875 33.6993 2.73472 31.4944 1.64167 28.9583C0.548611 26.4222 0.00138889 23.7139 0 20.8333C0 19.7222 0.0868056 18.6111 0.260417 17.5C0.434028 16.3889 0.694444 15.2951 1.04167 14.2187C1.21528 13.6632 1.57153 13.2903 2.11042 13.1C2.64931 12.9097 3.16111 12.9528 3.64583 13.2292C4.16667 13.5069 4.54028 13.9153 4.76667 14.4542C4.99306 14.9931 5.01875 15.5569 4.84375 16.1458C4.63542 16.9097 4.47014 17.6826 4.34792 18.4646C4.22569 19.2465 4.16528 20.0361 4.16667 20.8333C4.16667 25.4861 5.78125 29.4271 9.01042 32.6562C12.2396 35.8854 16.1806 37.5 20.8333 37.5C25.4861 37.5 29.4271 35.8854 32.6563 32.6562C35.8854 29.4271 37.5 25.4861 37.5 20.8333C37.5 16.1806 35.8854 12.2396 32.6563 9.01042C29.4271 5.78125 25.4861 4.16667 20.8333 4.16667C20 4.16667 19.1757 4.22708 18.3604 4.34792C17.5451 4.46875 16.7375 4.65139 15.9375 4.89583C15.3472 5.06944 14.7917 5.05208 14.2708 4.84375C13.75 4.63542 13.3681 4.27083 13.125 3.75C12.8819 3.22917 12.8729 2.7 13.0979 2.1625C13.3229 1.625 13.7139 1.26875 14.2708 1.09375C15.3125 0.711806 16.3889 0.434028 17.5 0.260417C18.6111 0.0868055 19.7222 0 20.8333 0C23.7153 0 26.4236 0.547222 28.9583 1.64167C31.4931 2.73611 33.6979 4.22014 35.5729 6.09375C37.4479 7.96736 38.9326 10.1722 40.0271 12.7083C41.1215 15.2444 41.6681 17.9528 41.6667 20.8333C41.6653 23.7139 41.1181 26.4222 40.025 28.9583C38.9319 31.4944 37.4479 33.6993 35.5729 35.5729C33.6979 37.4465 31.4931 38.9312 28.9583 40.0271C26.4236 41.1229 23.7153 41.6694 20.8333 41.6667ZM5.07917 9.50625C4.47083 8.89792 4.16667 8.15972 4.16667 7.29167C4.16667 6.42361 4.47083 5.68611 5.07917 5.07917C5.6875 4.47222 6.425 4.16806 7.29167 4.16667C8.15833 4.16528 8.89653 4.46944 9.50625 5.07917C10.116 5.68889 10.4194 6.42639 10.4167 7.29167C10.4139 8.15694 10.1104 8.89514 9.50625 9.50625C8.90208 10.1174 8.16389 10.4208 7.29167 10.4167C6.41944 10.4125 5.68195 10.109 5.07917 9.50625ZM11.9792 11.9792C14.4097 9.54861 17.3611 8.33333 20.8333 8.33333C24.3056 8.33333 27.2569 9.54861 29.6875 11.9792C32.1181 14.4097 33.3333 17.3611 33.3333 20.8333C33.3333 24.3056 32.1181 27.2569 29.6875 29.6875C27.2569 32.1181 24.3056 33.3333 20.8333 33.3333C17.3611 33.3333 14.4097 32.1181 11.9792 29.6875C9.54861 27.2569 8.33333 24.3056 8.33333 20.8333C8.33333 17.3611 9.54861 14.4097 11.9792 11.9792Z" fill="var(--fill-0, white)"/>
</svg>
