<svg preserveAspectRatio="none" width="100%" height="100%" overflow="visible" style="display: block;" viewBox="0 0 37.5 41.6667" fill="none" xmlns="http://www.w3.org/2000/svg">
<path id="Vector" d="M22.9167 19.7917C23.6006 19.7917 24.2779 19.657 24.9098 19.3952C25.5417 19.1335 26.1159 18.7498 26.5995 18.2662C27.0832 17.7825 27.4668 17.2084 27.7285 16.5765C27.9903 15.9446 28.125 15.2673 28.125 14.5833C28.125 13.202 27.5763 11.8772 26.5995 10.9005C25.6228 9.92373 24.298 9.375 22.9167 9.375C21.5353 9.375 20.2106 9.92373 19.2338 10.9005C18.2571 11.8772 17.7083 13.202 17.7083 14.5833C17.7083 15.2673 17.843 15.9446 18.1048 16.5765C18.3665 17.2084 18.7502 17.7825 19.2338 18.2662C20.2106 19.2429 21.5353 19.7917 22.9167 19.7917ZM22.9167 0C30.9583 0 37.5 6.52083 37.5 14.5833C37.5 25.5208 22.9167 41.6667 22.9167 41.6667C22.9167 41.6667 8.33333 25.5208 8.33333 14.5833C8.33333 10.7156 9.86979 7.00627 12.6047 4.27136C15.3396 1.53645 19.0489 0 22.9167 0ZM4.16667 14.5833C4.16667 23.9583 14.75 36.7917 16.6667 39.1875L14.5833 41.6667C14.5833 41.6667 0 25.5208 0 14.5833C0 7.97917 4.39583 2.39583 10.4167 0.604167C6.58333 4.04167 4.16667 9.02083 4.16667 14.5833Z" fill="var(--fill-0, white)"/>
</svg>
