<svg preserveAspectRatio="none" width="100%" height="100%" overflow="visible" style="display: block;" viewBox="0 0 103.292 45.1162" fill="none" xmlns="http://www.w3.org/2000/svg">
<path id="Subtract" d="M24.0146 0C27.7457 0 30.9344 0.542517 33.5801 1.62793C36.2936 2.71334 38.5321 4.17229 40.2959 6.00391C42.0596 7.83542 43.4502 9.97209 44.4678 12.4141C45.4853 14.8562 46.2659 17.4349 46.8086 20.1484C47.3512 22.8618 47.6905 25.6432 47.8262 28.4922C47.9618 31.3413 48.0293 34.0887 48.0293 36.7344C48.0293 39.38 47.9618 42.1274 47.8262 44.9766C47.824 45.0231 47.8207 45.0697 47.8184 45.1162H38.6045C38.7817 41.993 38.8711 39.1652 38.8711 36.6328C38.8711 34.869 38.8374 32.935 38.7695 30.832C38.7695 28.6614 38.5999 26.5247 38.2607 24.4219C37.9894 22.2512 37.548 20.1483 36.9375 18.1133C36.3948 16.0781 35.5468 14.3137 34.3936 12.8213C33.3082 11.2612 31.9175 10.0063 30.2217 9.05664C28.5257 8.10694 26.4568 7.63184 24.0146 7.63184C21.5725 7.63185 19.5036 8.10692 17.8076 9.05664C16.1118 10.0063 14.6874 11.2612 13.5342 12.8213C12.4488 14.3137 11.6008 16.0781 10.9902 18.1133C10.4476 20.1483 10.0062 22.2512 9.66699 24.4219C9.39566 26.5247 9.22605 28.6614 9.1582 30.832V36.6328C9.15821 39.1652 9.21874 41.993 9.33691 45.1162H0.210938C0.208614 45.0697 0.20534 45.0231 0.203125 44.9766C0.0674553 42.1274 0 39.38 0 36.7344C6.83209e-07 34.0887 0.0674534 31.3413 0.203125 28.4922C0.338793 25.6432 0.678058 22.8618 1.2207 20.1484C1.76341 17.4349 2.54395 14.8562 3.56152 12.4141C4.57905 9.9721 5.96976 7.83542 7.7334 6.00391C9.49719 4.17228 11.702 2.71334 14.3477 1.62793C17.0612 0.542523 20.2836 6.85128e-06 24.0146 0ZM79.1328 0C82.2533 0 85.1366 0.406689 87.7822 1.2207C90.4957 1.96692 92.8364 3.1204 94.8037 4.68066C96.771 6.24094 98.2974 8.24239 99.3828 10.6846C100.536 13.1267 101.112 16.0099 101.112 19.334C101.112 22.5902 100.163 25.4734 98.2637 27.9834C96.3643 30.4933 93.9897 32.3927 91.1406 33.6816V33.8848C95.55 34.8345 98.8062 36.9044 100.909 40.0928C101.957 41.6325 102.75 43.3075 103.292 45.1162H93.3984C92.6376 43.6965 91.6825 42.496 90.5303 41.5166C89.1735 40.2955 87.545 39.4138 85.6455 38.8711C83.8139 38.2606 81.8124 37.9551 79.6416 37.9551C77.81 37.9551 76.0802 38.0572 74.4521 38.2607V30.9346C74.7913 31.0024 75.0968 31.0361 75.3682 31.0361H78.2168C80.0484 31.0361 81.7791 30.7981 83.4072 30.3232C85.1029 29.7806 86.5613 29.0346 87.7822 28.085C89.0711 27.0675 90.0888 25.8126 90.835 24.3203C91.5811 22.8279 91.9541 21.1318 91.9541 19.2324C91.9541 15.3657 90.7332 12.4825 88.291 10.583C85.8488 8.6157 82.7961 7.63184 79.1328 7.63184C76.8264 7.63186 74.7911 8.07321 73.0273 8.95508C71.3316 9.76909 69.9071 10.8881 68.7539 12.3125C67.6685 13.7371 66.8542 15.3994 66.3115 17.2988C65.7688 19.1983 65.4971 21.1998 65.4971 23.3027H56.8477C56.9833 19.843 57.5268 16.6881 58.4766 13.8389C59.4941 10.9898 60.9185 8.54776 62.75 6.5127C64.5816 4.4776 66.8539 2.88274 69.5674 1.72949C72.3487 0.576259 75.5375 1.71498e-05 79.1328 0Z" fill="var(--fill-0, #E40C01)"/>
</svg>
