<svg preserveAspectRatio="none" width="100%" height="100%" overflow="visible" style="display: block;" viewBox="0 0 50 40" fill="none" xmlns="http://www.w3.org/2000/svg">
<path id="Icon" d="M5 40C3.625 40 2.44792 39.5104 1.46875 38.5312C0.489583 37.5521 0 36.375 0 35V5C0 3.625 0.489583 2.44792 1.46875 1.46875C2.44792 0.489583 3.625 0 5 0H45C46.375 0 47.5521 0.489583 48.5312 1.46875C49.5104 2.44792 50 3.625 50 5V35C50 36.375 49.5104 37.5521 48.5312 38.5312C47.5521 39.5104 46.375 40 45 40H5V40M5 35H45V35V35V10H5V35V35V35V35M13.75 32.5L10.25 29L16.6875 22.5L10.1875 16L13.75 12.5L23.75 22.5L13.75 32.5V32.5M25 32.5V27.5H40V32.5H25V32.5" fill="var(--fill-0, white)"/>
</svg>
