<svg preserveAspectRatio="none" width="100%" height="100%" overflow="visible" style="display: block;" viewBox="0 0 43.6667 43.6667" fill="none" xmlns="http://www.w3.org/2000/svg">
<g id="Group">
<path id="Vector" d="M42.6667 8.29167V36.4167C42.6667 39.8687 33.3396 42.6667 21.8333 42.6667C10.3271 42.6667 1 39.8687 1 36.4167V8.29167" stroke="var(--stroke-0, white)" stroke-width="2" stroke-linecap="round" stroke-linejoin="round"/>
<path id="Vector_2" d="M42.6667 27.0417C42.6667 30.4937 33.3396 33.2917 21.8333 33.2917C10.3271 33.2917 1 30.4937 1 27.0417M42.6667 17.6667C42.6667 21.1187 33.3396 23.9167 21.8333 23.9167C10.3271 23.9167 1 21.1187 1 17.6667" stroke="var(--stroke-0, white)" stroke-width="2" stroke-linecap="round" stroke-linejoin="round"/>
<path id="Vector_3" d="M21.8333 13.5C33.3393 13.5 42.6667 10.7018 42.6667 7.25C42.6667 3.79822 33.3393 1 21.8333 1C10.3274 1 1 3.79822 1 7.25C1 10.7018 10.3274 13.5 21.8333 13.5Z" fill="var(--fill-0, white)" stroke="var(--stroke-0, white)" stroke-width="2" stroke-linecap="round" stroke-linejoin="round"/>
</g>
</svg>
